%TF.GenerationSoftware,KiCad,Pcbnew,5.1.6*%
%TF.CreationDate,2020-06-28T23:45:08-05:00*%
%TF.ProjectId,watchKiCad,77617463-684b-4694-9361-642e6b696361,0*%
%TF.SameCoordinates,Original*%
%TF.FileFunction,Legend,Top*%
%TF.FilePolarity,Positive*%
%FSLAX46Y46*%
G04 Gerber Fmt 4.6, Leading zero omitted, Abs format (unit mm)*
G04 Created by KiCad (PCBNEW 5.1.6) date 2020-06-28 23:45:08*
%MOMM*%
%LPD*%
G01*
G04 APERTURE LIST*
%ADD10C,0.120000*%
%ADD11C,0.150000*%
G04 APERTURE END LIST*
D10*
%TO.C,U2*%
X131475000Y-110635000D02*
X133425000Y-110635000D01*
X131475000Y-110635000D02*
X129525000Y-110635000D01*
X131475000Y-101765000D02*
X133425000Y-101765000D01*
X131475000Y-101765000D02*
X128025000Y-101765000D01*
%TO.C,U5*%
X155450000Y-92950000D02*
X135450000Y-92950000D01*
X135450000Y-92950000D02*
X135450000Y-112950000D01*
X135450000Y-112950000D02*
X155450000Y-112950000D01*
X155450000Y-112950000D02*
X155450000Y-92950000D01*
%TO.C,SW1*%
X138200000Y-116200000D02*
X138200000Y-120700000D01*
X142200000Y-114950000D02*
X140700000Y-114950000D01*
X144700000Y-120700000D02*
X144700000Y-116200000D01*
X140700000Y-121950000D02*
X142200000Y-121950000D01*
%TO.C,SW2*%
X149950000Y-114950000D02*
X148450000Y-114950000D01*
X145950000Y-116200000D02*
X145950000Y-120700000D01*
X148450000Y-121950000D02*
X149950000Y-121950000D01*
X152450000Y-120700000D02*
X152450000Y-116200000D01*
%TO.C,C1*%
X135940000Y-121825279D02*
X135940000Y-121499721D01*
X136960000Y-121825279D02*
X136960000Y-121499721D01*
%TO.C,C2*%
X135940000Y-118249721D02*
X135940000Y-118575279D01*
X136960000Y-118249721D02*
X136960000Y-118575279D01*
%TO.C,R1*%
X153290000Y-121202064D02*
X153290000Y-119997936D01*
X155110000Y-121202064D02*
X155110000Y-119997936D01*
%TO.C,R2*%
X153290000Y-115247936D02*
X153290000Y-116452064D01*
X155110000Y-115247936D02*
X155110000Y-116452064D01*
%TO.C,R3*%
X140697936Y-95110000D02*
X141902064Y-95110000D01*
X140697936Y-93290000D02*
X141902064Y-93290000D01*
%TO.C,R4*%
X140697936Y-95790000D02*
X141902064Y-95790000D01*
X140697936Y-97610000D02*
X141902064Y-97610000D01*
%TO.C,R5*%
X141902064Y-100110000D02*
X140697936Y-100110000D01*
X141902064Y-98290000D02*
X140697936Y-98290000D01*
%TO.C,R6*%
X141902064Y-100790000D02*
X140697936Y-100790000D01*
X141902064Y-102610000D02*
X140697936Y-102610000D01*
%TO.C,R7*%
X150202064Y-105110000D02*
X148997936Y-105110000D01*
X150202064Y-103290000D02*
X148997936Y-103290000D01*
%TO.C,R8*%
X150202064Y-107610000D02*
X148997936Y-107610000D01*
X150202064Y-105790000D02*
X148997936Y-105790000D01*
%TO.C,R9*%
X150202064Y-108290000D02*
X148997936Y-108290000D01*
X150202064Y-110110000D02*
X148997936Y-110110000D01*
%TO.C,R10*%
X150202064Y-110790000D02*
X148997936Y-110790000D01*
X150202064Y-112610000D02*
X148997936Y-112610000D01*
%TO.C,U1*%
X135060000Y-95140000D02*
X133800000Y-95140000D01*
X128240000Y-95140000D02*
X129500000Y-95140000D01*
X135060000Y-98900000D02*
X135060000Y-95140000D01*
X128240000Y-101150000D02*
X128240000Y-95140000D01*
%TO.C,U3*%
X142675000Y-113260000D02*
X144625000Y-113260000D01*
X142675000Y-113260000D02*
X140725000Y-113260000D01*
X142675000Y-103140000D02*
X144625000Y-103140000D01*
X142675000Y-103140000D02*
X139225000Y-103140000D01*
%TO.C,U4*%
X148225000Y-102585000D02*
X151675000Y-102585000D01*
X148225000Y-102585000D02*
X146275000Y-102585000D01*
X148225000Y-92465000D02*
X150175000Y-92465000D01*
X148225000Y-92465000D02*
X146275000Y-92465000D01*
%TO.C,Y1*%
X129925000Y-120460000D02*
X129925000Y-114060000D01*
X134975000Y-120460000D02*
X134975000Y-114060000D01*
X134975000Y-120460000D02*
G75*
G02*
X129925000Y-120460000I-2525000J0D01*
G01*
X134975000Y-114060000D02*
G75*
G03*
X129925000Y-114060000I-2525000J0D01*
G01*
%TO.C,REF\u002A\u002A*%
D11*
X126816666Y-112452380D02*
X126483333Y-111976190D01*
X126245238Y-112452380D02*
X126245238Y-111452380D01*
X126626190Y-111452380D01*
X126721428Y-111500000D01*
X126769047Y-111547619D01*
X126816666Y-111642857D01*
X126816666Y-111785714D01*
X126769047Y-111880952D01*
X126721428Y-111928571D01*
X126626190Y-111976190D01*
X126245238Y-111976190D01*
X127245238Y-111928571D02*
X127578571Y-111928571D01*
X127721428Y-112452380D02*
X127245238Y-112452380D01*
X127245238Y-111452380D01*
X127721428Y-111452380D01*
X128483333Y-111928571D02*
X128150000Y-111928571D01*
X128150000Y-112452380D02*
X128150000Y-111452380D01*
X128626190Y-111452380D01*
X129150000Y-111452380D02*
X129150000Y-111690476D01*
X128911904Y-111595238D02*
X129150000Y-111690476D01*
X129388095Y-111595238D01*
X129007142Y-111880952D02*
X129150000Y-111690476D01*
X129292857Y-111880952D01*
X129911904Y-111452380D02*
X129911904Y-111690476D01*
X129673809Y-111595238D02*
X129911904Y-111690476D01*
X130150000Y-111595238D01*
X129769047Y-111880952D02*
X129911904Y-111690476D01*
X130054761Y-111880952D01*
X126816666Y-115052380D02*
X126483333Y-114576190D01*
X126245238Y-115052380D02*
X126245238Y-114052380D01*
X126626190Y-114052380D01*
X126721428Y-114100000D01*
X126769047Y-114147619D01*
X126816666Y-114242857D01*
X126816666Y-114385714D01*
X126769047Y-114480952D01*
X126721428Y-114528571D01*
X126626190Y-114576190D01*
X126245238Y-114576190D01*
X127245238Y-114528571D02*
X127578571Y-114528571D01*
X127721428Y-115052380D02*
X127245238Y-115052380D01*
X127245238Y-114052380D01*
X127721428Y-114052380D01*
X128483333Y-114528571D02*
X128150000Y-114528571D01*
X128150000Y-115052380D02*
X128150000Y-114052380D01*
X128626190Y-114052380D01*
X129150000Y-114052380D02*
X129150000Y-114290476D01*
X128911904Y-114195238D02*
X129150000Y-114290476D01*
X129388095Y-114195238D01*
X129007142Y-114480952D02*
X129150000Y-114290476D01*
X129292857Y-114480952D01*
X129911904Y-114052380D02*
X129911904Y-114290476D01*
X129673809Y-114195238D02*
X129911904Y-114290476D01*
X130150000Y-114195238D01*
X129769047Y-114480952D02*
X129911904Y-114290476D01*
X130054761Y-114480952D01*
X126816666Y-117652380D02*
X126483333Y-117176190D01*
X126245238Y-117652380D02*
X126245238Y-116652380D01*
X126626190Y-116652380D01*
X126721428Y-116700000D01*
X126769047Y-116747619D01*
X126816666Y-116842857D01*
X126816666Y-116985714D01*
X126769047Y-117080952D01*
X126721428Y-117128571D01*
X126626190Y-117176190D01*
X126245238Y-117176190D01*
X127245238Y-117128571D02*
X127578571Y-117128571D01*
X127721428Y-117652380D02*
X127245238Y-117652380D01*
X127245238Y-116652380D01*
X127721428Y-116652380D01*
X128483333Y-117128571D02*
X128150000Y-117128571D01*
X128150000Y-117652380D02*
X128150000Y-116652380D01*
X128626190Y-116652380D01*
X129150000Y-116652380D02*
X129150000Y-116890476D01*
X128911904Y-116795238D02*
X129150000Y-116890476D01*
X129388095Y-116795238D01*
X129007142Y-117080952D02*
X129150000Y-116890476D01*
X129292857Y-117080952D01*
X129911904Y-116652380D02*
X129911904Y-116890476D01*
X129673809Y-116795238D02*
X129911904Y-116890476D01*
X130150000Y-116795238D01*
X129769047Y-117080952D02*
X129911904Y-116890476D01*
X130054761Y-117080952D01*
X126816666Y-120252380D02*
X126483333Y-119776190D01*
X126245238Y-120252380D02*
X126245238Y-119252380D01*
X126626190Y-119252380D01*
X126721428Y-119300000D01*
X126769047Y-119347619D01*
X126816666Y-119442857D01*
X126816666Y-119585714D01*
X126769047Y-119680952D01*
X126721428Y-119728571D01*
X126626190Y-119776190D01*
X126245238Y-119776190D01*
X127245238Y-119728571D02*
X127578571Y-119728571D01*
X127721428Y-120252380D02*
X127245238Y-120252380D01*
X127245238Y-119252380D01*
X127721428Y-119252380D01*
X128483333Y-119728571D02*
X128150000Y-119728571D01*
X128150000Y-120252380D02*
X128150000Y-119252380D01*
X128626190Y-119252380D01*
X129150000Y-119252380D02*
X129150000Y-119490476D01*
X128911904Y-119395238D02*
X129150000Y-119490476D01*
X129388095Y-119395238D01*
X129007142Y-119680952D02*
X129150000Y-119490476D01*
X129292857Y-119680952D01*
X129911904Y-119252380D02*
X129911904Y-119490476D01*
X129673809Y-119395238D02*
X129911904Y-119490476D01*
X130150000Y-119395238D01*
X129769047Y-119680952D02*
X129911904Y-119490476D01*
X130054761Y-119680952D01*
%TO.C,U2*%
X130713095Y-100372380D02*
X130713095Y-101181904D01*
X130760714Y-101277142D01*
X130808333Y-101324761D01*
X130903571Y-101372380D01*
X131094047Y-101372380D01*
X131189285Y-101324761D01*
X131236904Y-101277142D01*
X131284523Y-101181904D01*
X131284523Y-100372380D01*
X131713095Y-100467619D02*
X131760714Y-100420000D01*
X131855952Y-100372380D01*
X132094047Y-100372380D01*
X132189285Y-100420000D01*
X132236904Y-100467619D01*
X132284523Y-100562857D01*
X132284523Y-100658095D01*
X132236904Y-100800952D01*
X131665476Y-101372380D01*
X132284523Y-101372380D01*
%TO.C,U5*%
X144688095Y-111152380D02*
X144688095Y-111961904D01*
X144735714Y-112057142D01*
X144783333Y-112104761D01*
X144878571Y-112152380D01*
X145069047Y-112152380D01*
X145164285Y-112104761D01*
X145211904Y-112057142D01*
X145259523Y-111961904D01*
X145259523Y-111152380D01*
X146211904Y-111152380D02*
X145735714Y-111152380D01*
X145688095Y-111628571D01*
X145735714Y-111580952D01*
X145830952Y-111533333D01*
X146069047Y-111533333D01*
X146164285Y-111580952D01*
X146211904Y-111628571D01*
X146259523Y-111723809D01*
X146259523Y-111961904D01*
X146211904Y-112057142D01*
X146164285Y-112104761D01*
X146069047Y-112152380D01*
X145830952Y-112152380D01*
X145735714Y-112104761D01*
X145688095Y-112057142D01*
%TO.C,SW1*%
X146104761Y-119783333D02*
X146152380Y-119640476D01*
X146152380Y-119402380D01*
X146104761Y-119307142D01*
X146057142Y-119259523D01*
X145961904Y-119211904D01*
X145866666Y-119211904D01*
X145771428Y-119259523D01*
X145723809Y-119307142D01*
X145676190Y-119402380D01*
X145628571Y-119592857D01*
X145580952Y-119688095D01*
X145533333Y-119735714D01*
X145438095Y-119783333D01*
X145342857Y-119783333D01*
X145247619Y-119735714D01*
X145200000Y-119688095D01*
X145152380Y-119592857D01*
X145152380Y-119354761D01*
X145200000Y-119211904D01*
X145152380Y-118878571D02*
X146152380Y-118640476D01*
X145438095Y-118450000D01*
X146152380Y-118259523D01*
X145152380Y-118021428D01*
X146152380Y-117116666D02*
X146152380Y-117688095D01*
X146152380Y-117402380D02*
X145152380Y-117402380D01*
X145295238Y-117497619D01*
X145390476Y-117592857D01*
X145438095Y-117688095D01*
%TO.C,SW2*%
X145354761Y-119783333D02*
X145402380Y-119640476D01*
X145402380Y-119402380D01*
X145354761Y-119307142D01*
X145307142Y-119259523D01*
X145211904Y-119211904D01*
X145116666Y-119211904D01*
X145021428Y-119259523D01*
X144973809Y-119307142D01*
X144926190Y-119402380D01*
X144878571Y-119592857D01*
X144830952Y-119688095D01*
X144783333Y-119735714D01*
X144688095Y-119783333D01*
X144592857Y-119783333D01*
X144497619Y-119735714D01*
X144450000Y-119688095D01*
X144402380Y-119592857D01*
X144402380Y-119354761D01*
X144450000Y-119211904D01*
X144402380Y-118878571D02*
X145402380Y-118640476D01*
X144688095Y-118450000D01*
X145402380Y-118259523D01*
X144402380Y-118021428D01*
X144497619Y-117688095D02*
X144450000Y-117640476D01*
X144402380Y-117545238D01*
X144402380Y-117307142D01*
X144450000Y-117211904D01*
X144497619Y-117164285D01*
X144592857Y-117116666D01*
X144688095Y-117116666D01*
X144830952Y-117164285D01*
X145402380Y-117735714D01*
X145402380Y-117116666D01*
%TO.C,C1*%
X135377142Y-121829166D02*
X135424761Y-121876785D01*
X135472380Y-122019642D01*
X135472380Y-122114880D01*
X135424761Y-122257738D01*
X135329523Y-122352976D01*
X135234285Y-122400595D01*
X135043809Y-122448214D01*
X134900952Y-122448214D01*
X134710476Y-122400595D01*
X134615238Y-122352976D01*
X134520000Y-122257738D01*
X134472380Y-122114880D01*
X134472380Y-122019642D01*
X134520000Y-121876785D01*
X134567619Y-121829166D01*
X135472380Y-120876785D02*
X135472380Y-121448214D01*
X135472380Y-121162500D02*
X134472380Y-121162500D01*
X134615238Y-121257738D01*
X134710476Y-121352976D01*
X134758095Y-121448214D01*
%TO.C,C2*%
X138237142Y-118579166D02*
X138284761Y-118626785D01*
X138332380Y-118769642D01*
X138332380Y-118864880D01*
X138284761Y-119007738D01*
X138189523Y-119102976D01*
X138094285Y-119150595D01*
X137903809Y-119198214D01*
X137760952Y-119198214D01*
X137570476Y-119150595D01*
X137475238Y-119102976D01*
X137380000Y-119007738D01*
X137332380Y-118864880D01*
X137332380Y-118769642D01*
X137380000Y-118626785D01*
X137427619Y-118579166D01*
X137427619Y-118198214D02*
X137380000Y-118150595D01*
X137332380Y-118055357D01*
X137332380Y-117817261D01*
X137380000Y-117722023D01*
X137427619Y-117674404D01*
X137522857Y-117626785D01*
X137618095Y-117626785D01*
X137760952Y-117674404D01*
X138332380Y-118245833D01*
X138332380Y-117626785D01*
%TO.C,R1*%
X152832380Y-120766666D02*
X152356190Y-121100000D01*
X152832380Y-121338095D02*
X151832380Y-121338095D01*
X151832380Y-120957142D01*
X151880000Y-120861904D01*
X151927619Y-120814285D01*
X152022857Y-120766666D01*
X152165714Y-120766666D01*
X152260952Y-120814285D01*
X152308571Y-120861904D01*
X152356190Y-120957142D01*
X152356190Y-121338095D01*
X152832380Y-119814285D02*
X152832380Y-120385714D01*
X152832380Y-120100000D02*
X151832380Y-120100000D01*
X151975238Y-120195238D01*
X152070476Y-120290476D01*
X152118095Y-120385714D01*
%TO.C,R2*%
X156472380Y-116016666D02*
X155996190Y-116350000D01*
X156472380Y-116588095D02*
X155472380Y-116588095D01*
X155472380Y-116207142D01*
X155520000Y-116111904D01*
X155567619Y-116064285D01*
X155662857Y-116016666D01*
X155805714Y-116016666D01*
X155900952Y-116064285D01*
X155948571Y-116111904D01*
X155996190Y-116207142D01*
X155996190Y-116588095D01*
X155567619Y-115635714D02*
X155520000Y-115588095D01*
X155472380Y-115492857D01*
X155472380Y-115254761D01*
X155520000Y-115159523D01*
X155567619Y-115111904D01*
X155662857Y-115064285D01*
X155758095Y-115064285D01*
X155900952Y-115111904D01*
X156472380Y-115683333D01*
X156472380Y-115064285D01*
%TO.C,R3*%
X141133333Y-92832380D02*
X140800000Y-92356190D01*
X140561904Y-92832380D02*
X140561904Y-91832380D01*
X140942857Y-91832380D01*
X141038095Y-91880000D01*
X141085714Y-91927619D01*
X141133333Y-92022857D01*
X141133333Y-92165714D01*
X141085714Y-92260952D01*
X141038095Y-92308571D01*
X140942857Y-92356190D01*
X140561904Y-92356190D01*
X141466666Y-91832380D02*
X142085714Y-91832380D01*
X141752380Y-92213333D01*
X141895238Y-92213333D01*
X141990476Y-92260952D01*
X142038095Y-92308571D01*
X142085714Y-92403809D01*
X142085714Y-92641904D01*
X142038095Y-92737142D01*
X141990476Y-92784761D01*
X141895238Y-92832380D01*
X141609523Y-92832380D01*
X141514285Y-92784761D01*
X141466666Y-92737142D01*
%TO.C,R4*%
X141133333Y-95332380D02*
X140800000Y-94856190D01*
X140561904Y-95332380D02*
X140561904Y-94332380D01*
X140942857Y-94332380D01*
X141038095Y-94380000D01*
X141085714Y-94427619D01*
X141133333Y-94522857D01*
X141133333Y-94665714D01*
X141085714Y-94760952D01*
X141038095Y-94808571D01*
X140942857Y-94856190D01*
X140561904Y-94856190D01*
X141990476Y-94665714D02*
X141990476Y-95332380D01*
X141752380Y-94284761D02*
X141514285Y-94999047D01*
X142133333Y-94999047D01*
%TO.C,R5*%
X141133333Y-101472380D02*
X140800000Y-100996190D01*
X140561904Y-101472380D02*
X140561904Y-100472380D01*
X140942857Y-100472380D01*
X141038095Y-100520000D01*
X141085714Y-100567619D01*
X141133333Y-100662857D01*
X141133333Y-100805714D01*
X141085714Y-100900952D01*
X141038095Y-100948571D01*
X140942857Y-100996190D01*
X140561904Y-100996190D01*
X142038095Y-100472380D02*
X141561904Y-100472380D01*
X141514285Y-100948571D01*
X141561904Y-100900952D01*
X141657142Y-100853333D01*
X141895238Y-100853333D01*
X141990476Y-100900952D01*
X142038095Y-100948571D01*
X142085714Y-101043809D01*
X142085714Y-101281904D01*
X142038095Y-101377142D01*
X141990476Y-101424761D01*
X141895238Y-101472380D01*
X141657142Y-101472380D01*
X141561904Y-101424761D01*
X141514285Y-101377142D01*
%TO.C,R6*%
X141133333Y-103972380D02*
X140800000Y-103496190D01*
X140561904Y-103972380D02*
X140561904Y-102972380D01*
X140942857Y-102972380D01*
X141038095Y-103020000D01*
X141085714Y-103067619D01*
X141133333Y-103162857D01*
X141133333Y-103305714D01*
X141085714Y-103400952D01*
X141038095Y-103448571D01*
X140942857Y-103496190D01*
X140561904Y-103496190D01*
X141990476Y-102972380D02*
X141800000Y-102972380D01*
X141704761Y-103020000D01*
X141657142Y-103067619D01*
X141561904Y-103210476D01*
X141514285Y-103400952D01*
X141514285Y-103781904D01*
X141561904Y-103877142D01*
X141609523Y-103924761D01*
X141704761Y-103972380D01*
X141895238Y-103972380D01*
X141990476Y-103924761D01*
X142038095Y-103877142D01*
X142085714Y-103781904D01*
X142085714Y-103543809D01*
X142038095Y-103448571D01*
X141990476Y-103400952D01*
X141895238Y-103353333D01*
X141704761Y-103353333D01*
X141609523Y-103400952D01*
X141561904Y-103448571D01*
X141514285Y-103543809D01*
%TO.C,R7*%
X149433333Y-106472380D02*
X149100000Y-105996190D01*
X148861904Y-106472380D02*
X148861904Y-105472380D01*
X149242857Y-105472380D01*
X149338095Y-105520000D01*
X149385714Y-105567619D01*
X149433333Y-105662857D01*
X149433333Y-105805714D01*
X149385714Y-105900952D01*
X149338095Y-105948571D01*
X149242857Y-105996190D01*
X148861904Y-105996190D01*
X149766666Y-105472380D02*
X150433333Y-105472380D01*
X150004761Y-106472380D01*
%TO.C,R8*%
X149433333Y-108972380D02*
X149100000Y-108496190D01*
X148861904Y-108972380D02*
X148861904Y-107972380D01*
X149242857Y-107972380D01*
X149338095Y-108020000D01*
X149385714Y-108067619D01*
X149433333Y-108162857D01*
X149433333Y-108305714D01*
X149385714Y-108400952D01*
X149338095Y-108448571D01*
X149242857Y-108496190D01*
X148861904Y-108496190D01*
X150004761Y-108400952D02*
X149909523Y-108353333D01*
X149861904Y-108305714D01*
X149814285Y-108210476D01*
X149814285Y-108162857D01*
X149861904Y-108067619D01*
X149909523Y-108020000D01*
X150004761Y-107972380D01*
X150195238Y-107972380D01*
X150290476Y-108020000D01*
X150338095Y-108067619D01*
X150385714Y-108162857D01*
X150385714Y-108210476D01*
X150338095Y-108305714D01*
X150290476Y-108353333D01*
X150195238Y-108400952D01*
X150004761Y-108400952D01*
X149909523Y-108448571D01*
X149861904Y-108496190D01*
X149814285Y-108591428D01*
X149814285Y-108781904D01*
X149861904Y-108877142D01*
X149909523Y-108924761D01*
X150004761Y-108972380D01*
X150195238Y-108972380D01*
X150290476Y-108924761D01*
X150338095Y-108877142D01*
X150385714Y-108781904D01*
X150385714Y-108591428D01*
X150338095Y-108496190D01*
X150290476Y-108448571D01*
X150195238Y-108400952D01*
%TO.C,R9*%
X149433333Y-111472380D02*
X149100000Y-110996190D01*
X148861904Y-111472380D02*
X148861904Y-110472380D01*
X149242857Y-110472380D01*
X149338095Y-110520000D01*
X149385714Y-110567619D01*
X149433333Y-110662857D01*
X149433333Y-110805714D01*
X149385714Y-110900952D01*
X149338095Y-110948571D01*
X149242857Y-110996190D01*
X148861904Y-110996190D01*
X149909523Y-111472380D02*
X150100000Y-111472380D01*
X150195238Y-111424761D01*
X150242857Y-111377142D01*
X150338095Y-111234285D01*
X150385714Y-111043809D01*
X150385714Y-110662857D01*
X150338095Y-110567619D01*
X150290476Y-110520000D01*
X150195238Y-110472380D01*
X150004761Y-110472380D01*
X149909523Y-110520000D01*
X149861904Y-110567619D01*
X149814285Y-110662857D01*
X149814285Y-110900952D01*
X149861904Y-110996190D01*
X149909523Y-111043809D01*
X150004761Y-111091428D01*
X150195238Y-111091428D01*
X150290476Y-111043809D01*
X150338095Y-110996190D01*
X150385714Y-110900952D01*
%TO.C,R10*%
X148957142Y-113972380D02*
X148623809Y-113496190D01*
X148385714Y-113972380D02*
X148385714Y-112972380D01*
X148766666Y-112972380D01*
X148861904Y-113020000D01*
X148909523Y-113067619D01*
X148957142Y-113162857D01*
X148957142Y-113305714D01*
X148909523Y-113400952D01*
X148861904Y-113448571D01*
X148766666Y-113496190D01*
X148385714Y-113496190D01*
X149909523Y-113972380D02*
X149338095Y-113972380D01*
X149623809Y-113972380D02*
X149623809Y-112972380D01*
X149528571Y-113115238D01*
X149433333Y-113210476D01*
X149338095Y-113258095D01*
X150528571Y-112972380D02*
X150623809Y-112972380D01*
X150719047Y-113020000D01*
X150766666Y-113067619D01*
X150814285Y-113162857D01*
X150861904Y-113353333D01*
X150861904Y-113591428D01*
X150814285Y-113781904D01*
X150766666Y-113877142D01*
X150719047Y-113924761D01*
X150623809Y-113972380D01*
X150528571Y-113972380D01*
X150433333Y-113924761D01*
X150385714Y-113877142D01*
X150338095Y-113781904D01*
X150290476Y-113591428D01*
X150290476Y-113353333D01*
X150338095Y-113162857D01*
X150385714Y-113067619D01*
X150433333Y-113020000D01*
X150528571Y-112972380D01*
%TO.C,U1*%
X126602380Y-97811904D02*
X127411904Y-97811904D01*
X127507142Y-97764285D01*
X127554761Y-97716666D01*
X127602380Y-97621428D01*
X127602380Y-97430952D01*
X127554761Y-97335714D01*
X127507142Y-97288095D01*
X127411904Y-97240476D01*
X126602380Y-97240476D01*
X127602380Y-96240476D02*
X127602380Y-96811904D01*
X127602380Y-96526190D02*
X126602380Y-96526190D01*
X126745238Y-96621428D01*
X126840476Y-96716666D01*
X126888095Y-96811904D01*
%TO.C,U3*%
X141913095Y-101752380D02*
X141913095Y-102561904D01*
X141960714Y-102657142D01*
X142008333Y-102704761D01*
X142103571Y-102752380D01*
X142294047Y-102752380D01*
X142389285Y-102704761D01*
X142436904Y-102657142D01*
X142484523Y-102561904D01*
X142484523Y-101752380D01*
X142865476Y-101752380D02*
X143484523Y-101752380D01*
X143151190Y-102133333D01*
X143294047Y-102133333D01*
X143389285Y-102180952D01*
X143436904Y-102228571D01*
X143484523Y-102323809D01*
X143484523Y-102561904D01*
X143436904Y-102657142D01*
X143389285Y-102704761D01*
X143294047Y-102752380D01*
X143008333Y-102752380D01*
X142913095Y-102704761D01*
X142865476Y-102657142D01*
%TO.C,U4*%
X147463095Y-102877380D02*
X147463095Y-103686904D01*
X147510714Y-103782142D01*
X147558333Y-103829761D01*
X147653571Y-103877380D01*
X147844047Y-103877380D01*
X147939285Y-103829761D01*
X147986904Y-103782142D01*
X148034523Y-103686904D01*
X148034523Y-102877380D01*
X148939285Y-103210714D02*
X148939285Y-103877380D01*
X148701190Y-102829761D02*
X148463095Y-103544047D01*
X149082142Y-103544047D01*
%TO.C,Y1*%
X128901190Y-117736190D02*
X129377380Y-117736190D01*
X128377380Y-118069523D02*
X128901190Y-117736190D01*
X128377380Y-117402857D01*
X129377380Y-116545714D02*
X129377380Y-117117142D01*
X129377380Y-116831428D02*
X128377380Y-116831428D01*
X128520238Y-116926666D01*
X128615476Y-117021904D01*
X128663095Y-117117142D01*
%TD*%
M02*
