%TF.GenerationSoftware,KiCad,Pcbnew,5.1.6*%
%TF.CreationDate,2020-06-28T23:45:08-05:00*%
%TF.ProjectId,watchKiCad,77617463-684b-4694-9361-642e6b696361,0*%
%TF.SameCoordinates,Original*%
%TF.FileFunction,Soldermask,Bot*%
%TF.FilePolarity,Negative*%
%FSLAX46Y46*%
G04 Gerber Fmt 4.6, Leading zero omitted, Abs format (unit mm)*
G04 Created by KiCad (PCBNEW 5.1.6) date 2020-06-28 23:45:08*
%MOMM*%
%LPD*%
G01*
G04 APERTURE LIST*
%ADD10C,1.624000*%
%ADD11C,2.100000*%
%ADD12C,1.600000*%
G04 APERTURE END LIST*
%TO.C,REF\u002A\u002A*%
G36*
G01*
X127300000Y-114584800D02*
X127300000Y-113415200D01*
G75*
G02*
X127565200Y-113150000I265200J0D01*
G01*
X128734800Y-113150000D01*
G75*
G02*
X129000000Y-113415200I0J-265200D01*
G01*
X129000000Y-114584800D01*
G75*
G02*
X128734800Y-114850000I-265200J0D01*
G01*
X127565200Y-114850000D01*
G75*
G02*
X127300000Y-114584800I0J265200D01*
G01*
G37*
%TD*%
%TO.C,REF\u002A\u002A*%
G36*
G01*
X127300000Y-117184800D02*
X127300000Y-116015200D01*
G75*
G02*
X127565200Y-115750000I265200J0D01*
G01*
X128734800Y-115750000D01*
G75*
G02*
X129000000Y-116015200I0J-265200D01*
G01*
X129000000Y-117184800D01*
G75*
G02*
X128734800Y-117450000I-265200J0D01*
G01*
X127565200Y-117450000D01*
G75*
G02*
X127300000Y-117184800I0J265200D01*
G01*
G37*
%TD*%
%TO.C,REF\u002A\u002A*%
G36*
G01*
X127300000Y-119784800D02*
X127300000Y-118615200D01*
G75*
G02*
X127565200Y-118350000I265200J0D01*
G01*
X128734800Y-118350000D01*
G75*
G02*
X129000000Y-118615200I0J-265200D01*
G01*
X129000000Y-119784800D01*
G75*
G02*
X128734800Y-120050000I-265200J0D01*
G01*
X127565200Y-120050000D01*
G75*
G02*
X127300000Y-119784800I0J265200D01*
G01*
G37*
%TD*%
%TO.C,REF\u002A\u002A*%
G36*
G01*
X127300000Y-122384800D02*
X127300000Y-121215200D01*
G75*
G02*
X127565200Y-120950000I265200J0D01*
G01*
X128734800Y-120950000D01*
G75*
G02*
X129000000Y-121215200I0J-265200D01*
G01*
X129000000Y-122384800D01*
G75*
G02*
X128734800Y-122650000I-265200J0D01*
G01*
X127565200Y-122650000D01*
G75*
G02*
X127300000Y-122384800I0J265200D01*
G01*
G37*
%TD*%
D10*
%TO.C,U5*%
X137950000Y-94200000D03*
X137950000Y-96700000D03*
X137950000Y-99200000D03*
X137950000Y-101700000D03*
X137950000Y-104200000D03*
X137950000Y-106700000D03*
X137950000Y-109200000D03*
X137950000Y-111700000D03*
X152950000Y-111700000D03*
X152950000Y-109200000D03*
X152950000Y-106700000D03*
X152950000Y-104200000D03*
X152950000Y-101700000D03*
X152950000Y-99200000D03*
X152950000Y-96700000D03*
X152950000Y-94200000D03*
%TD*%
D11*
%TO.C,SW1*%
X139200000Y-115200000D03*
X143700000Y-115200000D03*
X139200000Y-121700000D03*
X143700000Y-121700000D03*
%TD*%
%TO.C,SW2*%
X146950000Y-115200000D03*
X151450000Y-115200000D03*
X146950000Y-121700000D03*
X151450000Y-121700000D03*
%TD*%
D12*
%TO.C,Y1*%
X132450000Y-119700000D03*
X132450000Y-114820000D03*
%TD*%
M02*
