%TF.GenerationSoftware,KiCad,Pcbnew,5.1.6*%
%TF.CreationDate,2020-06-28T23:45:08-05:00*%
%TF.ProjectId,watchKiCad,77617463-684b-4694-9361-642e6b696361,0*%
%TF.SameCoordinates,Original*%
%TF.FileFunction,Copper,L1,Top*%
%TF.FilePolarity,Positive*%
%FSLAX46Y46*%
G04 Gerber Fmt 4.6, Leading zero omitted, Abs format (unit mm)*
G04 Created by KiCad (PCBNEW 5.1.6) date 2020-06-28 23:45:08*
%MOMM*%
%LPD*%
G01*
G04 APERTURE LIST*
%TA.AperFunction,ComponentPad*%
%ADD10C,1.524000*%
%TD*%
%TA.AperFunction,ComponentPad*%
%ADD11C,2.000000*%
%TD*%
%TA.AperFunction,SMDPad,CuDef*%
%ADD12R,3.800000X2.000000*%
%TD*%
%TA.AperFunction,SMDPad,CuDef*%
%ADD13R,1.500000X2.000000*%
%TD*%
%TA.AperFunction,ComponentPad*%
%ADD14C,1.500000*%
%TD*%
%TA.AperFunction,ViaPad*%
%ADD15C,0.800000*%
%TD*%
%TA.AperFunction,Conductor*%
%ADD16C,0.250000*%
%TD*%
G04 APERTURE END LIST*
%TO.P,REF\u002A\u002A,1*%
%TO.N,Net-(U2-Pad8)*%
%TA.AperFunction,ComponentPad*%
G36*
G01*
X127350000Y-114550400D02*
X127350000Y-113449600D01*
G75*
G02*
X127599600Y-113200000I249600J0D01*
G01*
X128700400Y-113200000D01*
G75*
G02*
X128950000Y-113449600I0J-249600D01*
G01*
X128950000Y-114550400D01*
G75*
G02*
X128700400Y-114800000I-249600J0D01*
G01*
X127599600Y-114800000D01*
G75*
G02*
X127350000Y-114550400I0J249600D01*
G01*
G37*
%TD.AperFunction*%
%TD*%
%TO.P,REF\u002A\u002A,1*%
%TO.N,Net-(U2-Pad9)*%
%TA.AperFunction,ComponentPad*%
G36*
G01*
X127350000Y-117150400D02*
X127350000Y-116049600D01*
G75*
G02*
X127599600Y-115800000I249600J0D01*
G01*
X128700400Y-115800000D01*
G75*
G02*
X128950000Y-116049600I0J-249600D01*
G01*
X128950000Y-117150400D01*
G75*
G02*
X128700400Y-117400000I-249600J0D01*
G01*
X127599600Y-117400000D01*
G75*
G02*
X127350000Y-117150400I0J249600D01*
G01*
G37*
%TD.AperFunction*%
%TD*%
%TO.P,REF\u002A\u002A,1*%
%TO.N,Net-(U2-Pad7)*%
%TA.AperFunction,ComponentPad*%
G36*
G01*
X127350000Y-119750400D02*
X127350000Y-118649600D01*
G75*
G02*
X127599600Y-118400000I249600J0D01*
G01*
X128700400Y-118400000D01*
G75*
G02*
X128950000Y-118649600I0J-249600D01*
G01*
X128950000Y-119750400D01*
G75*
G02*
X128700400Y-120000000I-249600J0D01*
G01*
X127599600Y-120000000D01*
G75*
G02*
X127350000Y-119750400I0J249600D01*
G01*
G37*
%TD.AperFunction*%
%TD*%
%TO.P,REF\u002A\u002A,1*%
%TO.N,Net-(U2-Pad4)*%
%TA.AperFunction,ComponentPad*%
G36*
G01*
X127350000Y-122350400D02*
X127350000Y-121249600D01*
G75*
G02*
X127599600Y-121000000I249600J0D01*
G01*
X128700400Y-121000000D01*
G75*
G02*
X128950000Y-121249600I0J-249600D01*
G01*
X128950000Y-122350400D01*
G75*
G02*
X128700400Y-122600000I-249600J0D01*
G01*
X127599600Y-122600000D01*
G75*
G02*
X127350000Y-122350400I0J249600D01*
G01*
G37*
%TD.AperFunction*%
%TD*%
%TO.P,U2,1*%
%TO.N,Net-(R1-Pad2)*%
%TA.AperFunction,SMDPad,CuDef*%
G36*
G01*
X128025000Y-102540000D02*
X128025000Y-102240000D01*
G75*
G02*
X128175000Y-102090000I150000J0D01*
G01*
X129825000Y-102090000D01*
G75*
G02*
X129975000Y-102240000I0J-150000D01*
G01*
X129975000Y-102540000D01*
G75*
G02*
X129825000Y-102690000I-150000J0D01*
G01*
X128175000Y-102690000D01*
G75*
G02*
X128025000Y-102540000I0J150000D01*
G01*
G37*
%TD.AperFunction*%
%TO.P,U2,2*%
%TO.N,Net-(C1-Pad1)*%
%TA.AperFunction,SMDPad,CuDef*%
G36*
G01*
X128025000Y-103810000D02*
X128025000Y-103510000D01*
G75*
G02*
X128175000Y-103360000I150000J0D01*
G01*
X129825000Y-103360000D01*
G75*
G02*
X129975000Y-103510000I0J-150000D01*
G01*
X129975000Y-103810000D01*
G75*
G02*
X129825000Y-103960000I-150000J0D01*
G01*
X128175000Y-103960000D01*
G75*
G02*
X128025000Y-103810000I0J150000D01*
G01*
G37*
%TD.AperFunction*%
%TO.P,U2,3*%
%TO.N,Net-(C2-Pad1)*%
%TA.AperFunction,SMDPad,CuDef*%
G36*
G01*
X128025000Y-105080000D02*
X128025000Y-104780000D01*
G75*
G02*
X128175000Y-104630000I150000J0D01*
G01*
X129825000Y-104630000D01*
G75*
G02*
X129975000Y-104780000I0J-150000D01*
G01*
X129975000Y-105080000D01*
G75*
G02*
X129825000Y-105230000I-150000J0D01*
G01*
X128175000Y-105230000D01*
G75*
G02*
X128025000Y-105080000I0J150000D01*
G01*
G37*
%TD.AperFunction*%
%TO.P,U2,4*%
%TO.N,Net-(U2-Pad4)*%
%TA.AperFunction,SMDPad,CuDef*%
G36*
G01*
X128025000Y-106350000D02*
X128025000Y-106050000D01*
G75*
G02*
X128175000Y-105900000I150000J0D01*
G01*
X129825000Y-105900000D01*
G75*
G02*
X129975000Y-106050000I0J-150000D01*
G01*
X129975000Y-106350000D01*
G75*
G02*
X129825000Y-106500000I-150000J0D01*
G01*
X128175000Y-106500000D01*
G75*
G02*
X128025000Y-106350000I0J150000D01*
G01*
G37*
%TD.AperFunction*%
%TO.P,U2,5*%
%TO.N,Net-(R1-Pad1)*%
%TA.AperFunction,SMDPad,CuDef*%
G36*
G01*
X128025000Y-107620000D02*
X128025000Y-107320000D01*
G75*
G02*
X128175000Y-107170000I150000J0D01*
G01*
X129825000Y-107170000D01*
G75*
G02*
X129975000Y-107320000I0J-150000D01*
G01*
X129975000Y-107620000D01*
G75*
G02*
X129825000Y-107770000I-150000J0D01*
G01*
X128175000Y-107770000D01*
G75*
G02*
X128025000Y-107620000I0J150000D01*
G01*
G37*
%TD.AperFunction*%
%TO.P,U2,6*%
%TO.N,Net-(R2-Pad1)*%
%TA.AperFunction,SMDPad,CuDef*%
G36*
G01*
X128025000Y-108890000D02*
X128025000Y-108590000D01*
G75*
G02*
X128175000Y-108440000I150000J0D01*
G01*
X129825000Y-108440000D01*
G75*
G02*
X129975000Y-108590000I0J-150000D01*
G01*
X129975000Y-108890000D01*
G75*
G02*
X129825000Y-109040000I-150000J0D01*
G01*
X128175000Y-109040000D01*
G75*
G02*
X128025000Y-108890000I0J150000D01*
G01*
G37*
%TD.AperFunction*%
%TO.P,U2,7*%
%TO.N,Net-(U2-Pad7)*%
%TA.AperFunction,SMDPad,CuDef*%
G36*
G01*
X128025000Y-110160000D02*
X128025000Y-109860000D01*
G75*
G02*
X128175000Y-109710000I150000J0D01*
G01*
X129825000Y-109710000D01*
G75*
G02*
X129975000Y-109860000I0J-150000D01*
G01*
X129975000Y-110160000D01*
G75*
G02*
X129825000Y-110310000I-150000J0D01*
G01*
X128175000Y-110310000D01*
G75*
G02*
X128025000Y-110160000I0J150000D01*
G01*
G37*
%TD.AperFunction*%
%TO.P,U2,8*%
%TO.N,Net-(U2-Pad8)*%
%TA.AperFunction,SMDPad,CuDef*%
G36*
G01*
X132975000Y-110160000D02*
X132975000Y-109860000D01*
G75*
G02*
X133125000Y-109710000I150000J0D01*
G01*
X134775000Y-109710000D01*
G75*
G02*
X134925000Y-109860000I0J-150000D01*
G01*
X134925000Y-110160000D01*
G75*
G02*
X134775000Y-110310000I-150000J0D01*
G01*
X133125000Y-110310000D01*
G75*
G02*
X132975000Y-110160000I0J150000D01*
G01*
G37*
%TD.AperFunction*%
%TO.P,U2,9*%
%TO.N,Net-(U2-Pad9)*%
%TA.AperFunction,SMDPad,CuDef*%
G36*
G01*
X132975000Y-108890000D02*
X132975000Y-108590000D01*
G75*
G02*
X133125000Y-108440000I150000J0D01*
G01*
X134775000Y-108440000D01*
G75*
G02*
X134925000Y-108590000I0J-150000D01*
G01*
X134925000Y-108890000D01*
G75*
G02*
X134775000Y-109040000I-150000J0D01*
G01*
X133125000Y-109040000D01*
G75*
G02*
X132975000Y-108890000I0J150000D01*
G01*
G37*
%TD.AperFunction*%
%TO.P,U2,10*%
%TO.N,Net-(U2-Pad10)*%
%TA.AperFunction,SMDPad,CuDef*%
G36*
G01*
X132975000Y-107620000D02*
X132975000Y-107320000D01*
G75*
G02*
X133125000Y-107170000I150000J0D01*
G01*
X134775000Y-107170000D01*
G75*
G02*
X134925000Y-107320000I0J-150000D01*
G01*
X134925000Y-107620000D01*
G75*
G02*
X134775000Y-107770000I-150000J0D01*
G01*
X133125000Y-107770000D01*
G75*
G02*
X132975000Y-107620000I0J150000D01*
G01*
G37*
%TD.AperFunction*%
%TO.P,U2,11*%
%TO.N,Net-(U2-Pad11)*%
%TA.AperFunction,SMDPad,CuDef*%
G36*
G01*
X132975000Y-106350000D02*
X132975000Y-106050000D01*
G75*
G02*
X133125000Y-105900000I150000J0D01*
G01*
X134775000Y-105900000D01*
G75*
G02*
X134925000Y-106050000I0J-150000D01*
G01*
X134925000Y-106350000D01*
G75*
G02*
X134775000Y-106500000I-150000J0D01*
G01*
X133125000Y-106500000D01*
G75*
G02*
X132975000Y-106350000I0J150000D01*
G01*
G37*
%TD.AperFunction*%
%TO.P,U2,12*%
%TO.N,Net-(U2-Pad12)*%
%TA.AperFunction,SMDPad,CuDef*%
G36*
G01*
X132975000Y-105080000D02*
X132975000Y-104780000D01*
G75*
G02*
X133125000Y-104630000I150000J0D01*
G01*
X134775000Y-104630000D01*
G75*
G02*
X134925000Y-104780000I0J-150000D01*
G01*
X134925000Y-105080000D01*
G75*
G02*
X134775000Y-105230000I-150000J0D01*
G01*
X133125000Y-105230000D01*
G75*
G02*
X132975000Y-105080000I0J150000D01*
G01*
G37*
%TD.AperFunction*%
%TO.P,U2,13*%
%TO.N,Net-(U2-Pad13)*%
%TA.AperFunction,SMDPad,CuDef*%
G36*
G01*
X132975000Y-103810000D02*
X132975000Y-103510000D01*
G75*
G02*
X133125000Y-103360000I150000J0D01*
G01*
X134775000Y-103360000D01*
G75*
G02*
X134925000Y-103510000I0J-150000D01*
G01*
X134925000Y-103810000D01*
G75*
G02*
X134775000Y-103960000I-150000J0D01*
G01*
X133125000Y-103960000D01*
G75*
G02*
X132975000Y-103810000I0J150000D01*
G01*
G37*
%TD.AperFunction*%
%TO.P,U2,14*%
%TO.N,GND*%
%TA.AperFunction,SMDPad,CuDef*%
G36*
G01*
X132975000Y-102540000D02*
X132975000Y-102240000D01*
G75*
G02*
X133125000Y-102090000I150000J0D01*
G01*
X134775000Y-102090000D01*
G75*
G02*
X134925000Y-102240000I0J-150000D01*
G01*
X134925000Y-102540000D01*
G75*
G02*
X134775000Y-102690000I-150000J0D01*
G01*
X133125000Y-102690000D01*
G75*
G02*
X132975000Y-102540000I0J150000D01*
G01*
G37*
%TD.AperFunction*%
%TD*%
D10*
%TO.P,U5,1*%
%TO.N,Net-(R3-Pad1)*%
X137950000Y-94200000D03*
%TO.P,U5,2*%
%TO.N,Net-(R4-Pad1)*%
X137950000Y-96700000D03*
%TO.P,U5,3*%
%TO.N,Net-(R5-Pad2)*%
X137950000Y-99200000D03*
%TO.P,U5,4*%
%TO.N,Net-(R6-Pad2)*%
X137950000Y-101700000D03*
%TO.P,U5,5*%
%TO.N,Net-(U3-Pad1)*%
X137950000Y-104200000D03*
%TO.P,U5,6*%
%TO.N,Net-(U3-Pad3)*%
X137950000Y-106700000D03*
%TO.P,U5,7*%
%TO.N,Net-(U3-Pad5)*%
X137950000Y-109200000D03*
%TO.P,U5,8*%
%TO.N,Net-(U3-Pad7)*%
X137950000Y-111700000D03*
%TO.P,U5,9*%
%TO.N,Net-(R10-Pad1)*%
X152950000Y-111700000D03*
%TO.P,U5,10*%
%TO.N,Net-(R9-Pad1)*%
X152950000Y-109200000D03*
%TO.P,U5,11*%
%TO.N,Net-(R8-Pad1)*%
X152950000Y-106700000D03*
%TO.P,U5,12*%
%TO.N,Net-(R7-Pad1)*%
X152950000Y-104200000D03*
%TO.P,U5,13*%
%TO.N,Net-(U4-Pad1)*%
X152950000Y-101700000D03*
%TO.P,U5,14*%
%TO.N,Net-(U4-Pad3)*%
X152950000Y-99200000D03*
%TO.P,U5,15*%
%TO.N,Net-(U4-Pad5)*%
X152950000Y-96700000D03*
%TO.P,U5,16*%
%TO.N,Net-(U4-Pad7)*%
X152950000Y-94200000D03*
%TD*%
D11*
%TO.P,SW1,2*%
%TO.N,Net-(R1-Pad1)*%
X139200000Y-115200000D03*
%TO.P,SW1,1*%
%TO.N,GND*%
X143700000Y-115200000D03*
%TO.P,SW1,2*%
%TO.N,Net-(R1-Pad1)*%
X139200000Y-121700000D03*
%TO.P,SW1,1*%
%TO.N,GND*%
X143700000Y-121700000D03*
%TD*%
%TO.P,SW2,1*%
%TO.N,GND*%
X146950000Y-115200000D03*
%TO.P,SW2,2*%
%TO.N,Net-(R2-Pad1)*%
X151450000Y-115200000D03*
%TO.P,SW2,1*%
%TO.N,GND*%
X146950000Y-121700000D03*
%TO.P,SW2,2*%
%TO.N,Net-(R2-Pad1)*%
X151450000Y-121700000D03*
%TD*%
%TO.P,C1,1*%
%TO.N,Net-(C1-Pad1)*%
%TA.AperFunction,SMDPad,CuDef*%
G36*
G01*
X136706250Y-122887500D02*
X136193750Y-122887500D01*
G75*
G02*
X135975000Y-122668750I0J218750D01*
G01*
X135975000Y-122231250D01*
G75*
G02*
X136193750Y-122012500I218750J0D01*
G01*
X136706250Y-122012500D01*
G75*
G02*
X136925000Y-122231250I0J-218750D01*
G01*
X136925000Y-122668750D01*
G75*
G02*
X136706250Y-122887500I-218750J0D01*
G01*
G37*
%TD.AperFunction*%
%TO.P,C1,2*%
%TO.N,GND*%
%TA.AperFunction,SMDPad,CuDef*%
G36*
G01*
X136706250Y-121312500D02*
X136193750Y-121312500D01*
G75*
G02*
X135975000Y-121093750I0J218750D01*
G01*
X135975000Y-120656250D01*
G75*
G02*
X136193750Y-120437500I218750J0D01*
G01*
X136706250Y-120437500D01*
G75*
G02*
X136925000Y-120656250I0J-218750D01*
G01*
X136925000Y-121093750D01*
G75*
G02*
X136706250Y-121312500I-218750J0D01*
G01*
G37*
%TD.AperFunction*%
%TD*%
%TO.P,C2,2*%
%TO.N,GND*%
%TA.AperFunction,SMDPad,CuDef*%
G36*
G01*
X136193750Y-118762500D02*
X136706250Y-118762500D01*
G75*
G02*
X136925000Y-118981250I0J-218750D01*
G01*
X136925000Y-119418750D01*
G75*
G02*
X136706250Y-119637500I-218750J0D01*
G01*
X136193750Y-119637500D01*
G75*
G02*
X135975000Y-119418750I0J218750D01*
G01*
X135975000Y-118981250D01*
G75*
G02*
X136193750Y-118762500I218750J0D01*
G01*
G37*
%TD.AperFunction*%
%TO.P,C2,1*%
%TO.N,Net-(C2-Pad1)*%
%TA.AperFunction,SMDPad,CuDef*%
G36*
G01*
X136193750Y-117187500D02*
X136706250Y-117187500D01*
G75*
G02*
X136925000Y-117406250I0J-218750D01*
G01*
X136925000Y-117843750D01*
G75*
G02*
X136706250Y-118062500I-218750J0D01*
G01*
X136193750Y-118062500D01*
G75*
G02*
X135975000Y-117843750I0J218750D01*
G01*
X135975000Y-117406250D01*
G75*
G02*
X136193750Y-117187500I218750J0D01*
G01*
G37*
%TD.AperFunction*%
%TD*%
%TO.P,R1,1*%
%TO.N,Net-(R1-Pad1)*%
%TA.AperFunction,SMDPad,CuDef*%
G36*
G01*
X154825000Y-122625000D02*
X153575000Y-122625000D01*
G75*
G02*
X153325000Y-122375000I0J250000D01*
G01*
X153325000Y-121625000D01*
G75*
G02*
X153575000Y-121375000I250000J0D01*
G01*
X154825000Y-121375000D01*
G75*
G02*
X155075000Y-121625000I0J-250000D01*
G01*
X155075000Y-122375000D01*
G75*
G02*
X154825000Y-122625000I-250000J0D01*
G01*
G37*
%TD.AperFunction*%
%TO.P,R1,2*%
%TO.N,Net-(R1-Pad2)*%
%TA.AperFunction,SMDPad,CuDef*%
G36*
G01*
X154825000Y-119825000D02*
X153575000Y-119825000D01*
G75*
G02*
X153325000Y-119575000I0J250000D01*
G01*
X153325000Y-118825000D01*
G75*
G02*
X153575000Y-118575000I250000J0D01*
G01*
X154825000Y-118575000D01*
G75*
G02*
X155075000Y-118825000I0J-250000D01*
G01*
X155075000Y-119575000D01*
G75*
G02*
X154825000Y-119825000I-250000J0D01*
G01*
G37*
%TD.AperFunction*%
%TD*%
%TO.P,R2,2*%
%TO.N,Net-(R1-Pad2)*%
%TA.AperFunction,SMDPad,CuDef*%
G36*
G01*
X153575000Y-116625000D02*
X154825000Y-116625000D01*
G75*
G02*
X155075000Y-116875000I0J-250000D01*
G01*
X155075000Y-117625000D01*
G75*
G02*
X154825000Y-117875000I-250000J0D01*
G01*
X153575000Y-117875000D01*
G75*
G02*
X153325000Y-117625000I0J250000D01*
G01*
X153325000Y-116875000D01*
G75*
G02*
X153575000Y-116625000I250000J0D01*
G01*
G37*
%TD.AperFunction*%
%TO.P,R2,1*%
%TO.N,Net-(R2-Pad1)*%
%TA.AperFunction,SMDPad,CuDef*%
G36*
G01*
X153575000Y-113825000D02*
X154825000Y-113825000D01*
G75*
G02*
X155075000Y-114075000I0J-250000D01*
G01*
X155075000Y-114825000D01*
G75*
G02*
X154825000Y-115075000I-250000J0D01*
G01*
X153575000Y-115075000D01*
G75*
G02*
X153325000Y-114825000I0J250000D01*
G01*
X153325000Y-114075000D01*
G75*
G02*
X153575000Y-113825000I250000J0D01*
G01*
G37*
%TD.AperFunction*%
%TD*%
%TO.P,R3,2*%
%TO.N,Net-(R3-Pad2)*%
%TA.AperFunction,SMDPad,CuDef*%
G36*
G01*
X142075000Y-94825000D02*
X142075000Y-93575000D01*
G75*
G02*
X142325000Y-93325000I250000J0D01*
G01*
X143075000Y-93325000D01*
G75*
G02*
X143325000Y-93575000I0J-250000D01*
G01*
X143325000Y-94825000D01*
G75*
G02*
X143075000Y-95075000I-250000J0D01*
G01*
X142325000Y-95075000D01*
G75*
G02*
X142075000Y-94825000I0J250000D01*
G01*
G37*
%TD.AperFunction*%
%TO.P,R3,1*%
%TO.N,Net-(R3-Pad1)*%
%TA.AperFunction,SMDPad,CuDef*%
G36*
G01*
X139275000Y-94825000D02*
X139275000Y-93575000D01*
G75*
G02*
X139525000Y-93325000I250000J0D01*
G01*
X140275000Y-93325000D01*
G75*
G02*
X140525000Y-93575000I0J-250000D01*
G01*
X140525000Y-94825000D01*
G75*
G02*
X140275000Y-95075000I-250000J0D01*
G01*
X139525000Y-95075000D01*
G75*
G02*
X139275000Y-94825000I0J250000D01*
G01*
G37*
%TD.AperFunction*%
%TD*%
%TO.P,R4,1*%
%TO.N,Net-(R4-Pad1)*%
%TA.AperFunction,SMDPad,CuDef*%
G36*
G01*
X139275000Y-97325000D02*
X139275000Y-96075000D01*
G75*
G02*
X139525000Y-95825000I250000J0D01*
G01*
X140275000Y-95825000D01*
G75*
G02*
X140525000Y-96075000I0J-250000D01*
G01*
X140525000Y-97325000D01*
G75*
G02*
X140275000Y-97575000I-250000J0D01*
G01*
X139525000Y-97575000D01*
G75*
G02*
X139275000Y-97325000I0J250000D01*
G01*
G37*
%TD.AperFunction*%
%TO.P,R4,2*%
%TO.N,Net-(R4-Pad2)*%
%TA.AperFunction,SMDPad,CuDef*%
G36*
G01*
X142075000Y-97325000D02*
X142075000Y-96075000D01*
G75*
G02*
X142325000Y-95825000I250000J0D01*
G01*
X143075000Y-95825000D01*
G75*
G02*
X143325000Y-96075000I0J-250000D01*
G01*
X143325000Y-97325000D01*
G75*
G02*
X143075000Y-97575000I-250000J0D01*
G01*
X142325000Y-97575000D01*
G75*
G02*
X142075000Y-97325000I0J250000D01*
G01*
G37*
%TD.AperFunction*%
%TD*%
%TO.P,R5,1*%
%TO.N,Net-(R5-Pad1)*%
%TA.AperFunction,SMDPad,CuDef*%
G36*
G01*
X143325000Y-98575000D02*
X143325000Y-99825000D01*
G75*
G02*
X143075000Y-100075000I-250000J0D01*
G01*
X142325000Y-100075000D01*
G75*
G02*
X142075000Y-99825000I0J250000D01*
G01*
X142075000Y-98575000D01*
G75*
G02*
X142325000Y-98325000I250000J0D01*
G01*
X143075000Y-98325000D01*
G75*
G02*
X143325000Y-98575000I0J-250000D01*
G01*
G37*
%TD.AperFunction*%
%TO.P,R5,2*%
%TO.N,Net-(R5-Pad2)*%
%TA.AperFunction,SMDPad,CuDef*%
G36*
G01*
X140525000Y-98575000D02*
X140525000Y-99825000D01*
G75*
G02*
X140275000Y-100075000I-250000J0D01*
G01*
X139525000Y-100075000D01*
G75*
G02*
X139275000Y-99825000I0J250000D01*
G01*
X139275000Y-98575000D01*
G75*
G02*
X139525000Y-98325000I250000J0D01*
G01*
X140275000Y-98325000D01*
G75*
G02*
X140525000Y-98575000I0J-250000D01*
G01*
G37*
%TD.AperFunction*%
%TD*%
%TO.P,R6,2*%
%TO.N,Net-(R6-Pad2)*%
%TA.AperFunction,SMDPad,CuDef*%
G36*
G01*
X140525000Y-101075000D02*
X140525000Y-102325000D01*
G75*
G02*
X140275000Y-102575000I-250000J0D01*
G01*
X139525000Y-102575000D01*
G75*
G02*
X139275000Y-102325000I0J250000D01*
G01*
X139275000Y-101075000D01*
G75*
G02*
X139525000Y-100825000I250000J0D01*
G01*
X140275000Y-100825000D01*
G75*
G02*
X140525000Y-101075000I0J-250000D01*
G01*
G37*
%TD.AperFunction*%
%TO.P,R6,1*%
%TO.N,Net-(R6-Pad1)*%
%TA.AperFunction,SMDPad,CuDef*%
G36*
G01*
X143325000Y-101075000D02*
X143325000Y-102325000D01*
G75*
G02*
X143075000Y-102575000I-250000J0D01*
G01*
X142325000Y-102575000D01*
G75*
G02*
X142075000Y-102325000I0J250000D01*
G01*
X142075000Y-101075000D01*
G75*
G02*
X142325000Y-100825000I250000J0D01*
G01*
X143075000Y-100825000D01*
G75*
G02*
X143325000Y-101075000I0J-250000D01*
G01*
G37*
%TD.AperFunction*%
%TD*%
%TO.P,R7,1*%
%TO.N,Net-(R7-Pad1)*%
%TA.AperFunction,SMDPad,CuDef*%
G36*
G01*
X151625000Y-103575000D02*
X151625000Y-104825000D01*
G75*
G02*
X151375000Y-105075000I-250000J0D01*
G01*
X150625000Y-105075000D01*
G75*
G02*
X150375000Y-104825000I0J250000D01*
G01*
X150375000Y-103575000D01*
G75*
G02*
X150625000Y-103325000I250000J0D01*
G01*
X151375000Y-103325000D01*
G75*
G02*
X151625000Y-103575000I0J-250000D01*
G01*
G37*
%TD.AperFunction*%
%TO.P,R7,2*%
%TO.N,Net-(R7-Pad2)*%
%TA.AperFunction,SMDPad,CuDef*%
G36*
G01*
X148825000Y-103575000D02*
X148825000Y-104825000D01*
G75*
G02*
X148575000Y-105075000I-250000J0D01*
G01*
X147825000Y-105075000D01*
G75*
G02*
X147575000Y-104825000I0J250000D01*
G01*
X147575000Y-103575000D01*
G75*
G02*
X147825000Y-103325000I250000J0D01*
G01*
X148575000Y-103325000D01*
G75*
G02*
X148825000Y-103575000I0J-250000D01*
G01*
G37*
%TD.AperFunction*%
%TD*%
%TO.P,R8,1*%
%TO.N,Net-(R8-Pad1)*%
%TA.AperFunction,SMDPad,CuDef*%
G36*
G01*
X151625000Y-106075000D02*
X151625000Y-107325000D01*
G75*
G02*
X151375000Y-107575000I-250000J0D01*
G01*
X150625000Y-107575000D01*
G75*
G02*
X150375000Y-107325000I0J250000D01*
G01*
X150375000Y-106075000D01*
G75*
G02*
X150625000Y-105825000I250000J0D01*
G01*
X151375000Y-105825000D01*
G75*
G02*
X151625000Y-106075000I0J-250000D01*
G01*
G37*
%TD.AperFunction*%
%TO.P,R8,2*%
%TO.N,Net-(R8-Pad2)*%
%TA.AperFunction,SMDPad,CuDef*%
G36*
G01*
X148825000Y-106075000D02*
X148825000Y-107325000D01*
G75*
G02*
X148575000Y-107575000I-250000J0D01*
G01*
X147825000Y-107575000D01*
G75*
G02*
X147575000Y-107325000I0J250000D01*
G01*
X147575000Y-106075000D01*
G75*
G02*
X147825000Y-105825000I250000J0D01*
G01*
X148575000Y-105825000D01*
G75*
G02*
X148825000Y-106075000I0J-250000D01*
G01*
G37*
%TD.AperFunction*%
%TD*%
%TO.P,R9,2*%
%TO.N,Net-(R9-Pad2)*%
%TA.AperFunction,SMDPad,CuDef*%
G36*
G01*
X148825000Y-108575000D02*
X148825000Y-109825000D01*
G75*
G02*
X148575000Y-110075000I-250000J0D01*
G01*
X147825000Y-110075000D01*
G75*
G02*
X147575000Y-109825000I0J250000D01*
G01*
X147575000Y-108575000D01*
G75*
G02*
X147825000Y-108325000I250000J0D01*
G01*
X148575000Y-108325000D01*
G75*
G02*
X148825000Y-108575000I0J-250000D01*
G01*
G37*
%TD.AperFunction*%
%TO.P,R9,1*%
%TO.N,Net-(R9-Pad1)*%
%TA.AperFunction,SMDPad,CuDef*%
G36*
G01*
X151625000Y-108575000D02*
X151625000Y-109825000D01*
G75*
G02*
X151375000Y-110075000I-250000J0D01*
G01*
X150625000Y-110075000D01*
G75*
G02*
X150375000Y-109825000I0J250000D01*
G01*
X150375000Y-108575000D01*
G75*
G02*
X150625000Y-108325000I250000J0D01*
G01*
X151375000Y-108325000D01*
G75*
G02*
X151625000Y-108575000I0J-250000D01*
G01*
G37*
%TD.AperFunction*%
%TD*%
%TO.P,R10,2*%
%TO.N,Net-(R10-Pad2)*%
%TA.AperFunction,SMDPad,CuDef*%
G36*
G01*
X148825000Y-111075000D02*
X148825000Y-112325000D01*
G75*
G02*
X148575000Y-112575000I-250000J0D01*
G01*
X147825000Y-112575000D01*
G75*
G02*
X147575000Y-112325000I0J250000D01*
G01*
X147575000Y-111075000D01*
G75*
G02*
X147825000Y-110825000I250000J0D01*
G01*
X148575000Y-110825000D01*
G75*
G02*
X148825000Y-111075000I0J-250000D01*
G01*
G37*
%TD.AperFunction*%
%TO.P,R10,1*%
%TO.N,Net-(R10-Pad1)*%
%TA.AperFunction,SMDPad,CuDef*%
G36*
G01*
X151625000Y-111075000D02*
X151625000Y-112325000D01*
G75*
G02*
X151375000Y-112575000I-250000J0D01*
G01*
X150625000Y-112575000D01*
G75*
G02*
X150375000Y-112325000I0J250000D01*
G01*
X150375000Y-111075000D01*
G75*
G02*
X150625000Y-110825000I250000J0D01*
G01*
X151375000Y-110825000D01*
G75*
G02*
X151625000Y-111075000I0J-250000D01*
G01*
G37*
%TD.AperFunction*%
%TD*%
D12*
%TO.P,U1,2*%
%TO.N,Net-(R1-Pad2)*%
X131650000Y-93900000D03*
D13*
X131650000Y-100200000D03*
%TO.P,U1,3*%
%TO.N,VCC*%
X133950000Y-100200000D03*
%TO.P,U1,1*%
%TO.N,GND*%
X129350000Y-100200000D03*
%TD*%
%TO.P,U3,1*%
%TO.N,Net-(U3-Pad1)*%
%TA.AperFunction,SMDPad,CuDef*%
G36*
G01*
X139225000Y-103905000D02*
X139225000Y-103605000D01*
G75*
G02*
X139375000Y-103455000I150000J0D01*
G01*
X141025000Y-103455000D01*
G75*
G02*
X141175000Y-103605000I0J-150000D01*
G01*
X141175000Y-103905000D01*
G75*
G02*
X141025000Y-104055000I-150000J0D01*
G01*
X139375000Y-104055000D01*
G75*
G02*
X139225000Y-103905000I0J150000D01*
G01*
G37*
%TD.AperFunction*%
%TO.P,U3,2*%
%TO.N,Net-(R8-Pad2)*%
%TA.AperFunction,SMDPad,CuDef*%
G36*
G01*
X139225000Y-105175000D02*
X139225000Y-104875000D01*
G75*
G02*
X139375000Y-104725000I150000J0D01*
G01*
X141025000Y-104725000D01*
G75*
G02*
X141175000Y-104875000I0J-150000D01*
G01*
X141175000Y-105175000D01*
G75*
G02*
X141025000Y-105325000I-150000J0D01*
G01*
X139375000Y-105325000D01*
G75*
G02*
X139225000Y-105175000I0J150000D01*
G01*
G37*
%TD.AperFunction*%
%TO.P,U3,3*%
%TO.N,Net-(U3-Pad3)*%
%TA.AperFunction,SMDPad,CuDef*%
G36*
G01*
X139225000Y-106445000D02*
X139225000Y-106145000D01*
G75*
G02*
X139375000Y-105995000I150000J0D01*
G01*
X141025000Y-105995000D01*
G75*
G02*
X141175000Y-106145000I0J-150000D01*
G01*
X141175000Y-106445000D01*
G75*
G02*
X141025000Y-106595000I-150000J0D01*
G01*
X139375000Y-106595000D01*
G75*
G02*
X139225000Y-106445000I0J150000D01*
G01*
G37*
%TD.AperFunction*%
%TO.P,U3,4*%
%TO.N,Net-(R9-Pad2)*%
%TA.AperFunction,SMDPad,CuDef*%
G36*
G01*
X139225000Y-107715000D02*
X139225000Y-107415000D01*
G75*
G02*
X139375000Y-107265000I150000J0D01*
G01*
X141025000Y-107265000D01*
G75*
G02*
X141175000Y-107415000I0J-150000D01*
G01*
X141175000Y-107715000D01*
G75*
G02*
X141025000Y-107865000I-150000J0D01*
G01*
X139375000Y-107865000D01*
G75*
G02*
X139225000Y-107715000I0J150000D01*
G01*
G37*
%TD.AperFunction*%
%TO.P,U3,5*%
%TO.N,Net-(U3-Pad5)*%
%TA.AperFunction,SMDPad,CuDef*%
G36*
G01*
X139225000Y-108985000D02*
X139225000Y-108685000D01*
G75*
G02*
X139375000Y-108535000I150000J0D01*
G01*
X141025000Y-108535000D01*
G75*
G02*
X141175000Y-108685000I0J-150000D01*
G01*
X141175000Y-108985000D01*
G75*
G02*
X141025000Y-109135000I-150000J0D01*
G01*
X139375000Y-109135000D01*
G75*
G02*
X139225000Y-108985000I0J150000D01*
G01*
G37*
%TD.AperFunction*%
%TO.P,U3,6*%
%TO.N,Net-(R10-Pad2)*%
%TA.AperFunction,SMDPad,CuDef*%
G36*
G01*
X139225000Y-110255000D02*
X139225000Y-109955000D01*
G75*
G02*
X139375000Y-109805000I150000J0D01*
G01*
X141025000Y-109805000D01*
G75*
G02*
X141175000Y-109955000I0J-150000D01*
G01*
X141175000Y-110255000D01*
G75*
G02*
X141025000Y-110405000I-150000J0D01*
G01*
X139375000Y-110405000D01*
G75*
G02*
X139225000Y-110255000I0J150000D01*
G01*
G37*
%TD.AperFunction*%
%TO.P,U3,7*%
%TO.N,Net-(U3-Pad7)*%
%TA.AperFunction,SMDPad,CuDef*%
G36*
G01*
X139225000Y-111525000D02*
X139225000Y-111225000D01*
G75*
G02*
X139375000Y-111075000I150000J0D01*
G01*
X141025000Y-111075000D01*
G75*
G02*
X141175000Y-111225000I0J-150000D01*
G01*
X141175000Y-111525000D01*
G75*
G02*
X141025000Y-111675000I-150000J0D01*
G01*
X139375000Y-111675000D01*
G75*
G02*
X139225000Y-111525000I0J150000D01*
G01*
G37*
%TD.AperFunction*%
%TO.P,U3,8*%
%TO.N,GND*%
%TA.AperFunction,SMDPad,CuDef*%
G36*
G01*
X139225000Y-112795000D02*
X139225000Y-112495000D01*
G75*
G02*
X139375000Y-112345000I150000J0D01*
G01*
X141025000Y-112345000D01*
G75*
G02*
X141175000Y-112495000I0J-150000D01*
G01*
X141175000Y-112795000D01*
G75*
G02*
X141025000Y-112945000I-150000J0D01*
G01*
X139375000Y-112945000D01*
G75*
G02*
X139225000Y-112795000I0J150000D01*
G01*
G37*
%TD.AperFunction*%
%TO.P,U3,9*%
%TO.N,Net-(U3-Pad9)*%
%TA.AperFunction,SMDPad,CuDef*%
G36*
G01*
X144175000Y-112795000D02*
X144175000Y-112495000D01*
G75*
G02*
X144325000Y-112345000I150000J0D01*
G01*
X145975000Y-112345000D01*
G75*
G02*
X146125000Y-112495000I0J-150000D01*
G01*
X146125000Y-112795000D01*
G75*
G02*
X145975000Y-112945000I-150000J0D01*
G01*
X144325000Y-112945000D01*
G75*
G02*
X144175000Y-112795000I0J150000D01*
G01*
G37*
%TD.AperFunction*%
%TO.P,U3,10*%
%TO.N,Net-(R1-Pad2)*%
%TA.AperFunction,SMDPad,CuDef*%
G36*
G01*
X144175000Y-111525000D02*
X144175000Y-111225000D01*
G75*
G02*
X144325000Y-111075000I150000J0D01*
G01*
X145975000Y-111075000D01*
G75*
G02*
X146125000Y-111225000I0J-150000D01*
G01*
X146125000Y-111525000D01*
G75*
G02*
X145975000Y-111675000I-150000J0D01*
G01*
X144325000Y-111675000D01*
G75*
G02*
X144175000Y-111525000I0J150000D01*
G01*
G37*
%TD.AperFunction*%
%TO.P,U3,11*%
%TO.N,Net-(U2-Pad10)*%
%TA.AperFunction,SMDPad,CuDef*%
G36*
G01*
X144175000Y-110255000D02*
X144175000Y-109955000D01*
G75*
G02*
X144325000Y-109805000I150000J0D01*
G01*
X145975000Y-109805000D01*
G75*
G02*
X146125000Y-109955000I0J-150000D01*
G01*
X146125000Y-110255000D01*
G75*
G02*
X145975000Y-110405000I-150000J0D01*
G01*
X144325000Y-110405000D01*
G75*
G02*
X144175000Y-110255000I0J150000D01*
G01*
G37*
%TD.AperFunction*%
%TO.P,U3,12*%
%TO.N,Net-(U2-Pad11)*%
%TA.AperFunction,SMDPad,CuDef*%
G36*
G01*
X144175000Y-108985000D02*
X144175000Y-108685000D01*
G75*
G02*
X144325000Y-108535000I150000J0D01*
G01*
X145975000Y-108535000D01*
G75*
G02*
X146125000Y-108685000I0J-150000D01*
G01*
X146125000Y-108985000D01*
G75*
G02*
X145975000Y-109135000I-150000J0D01*
G01*
X144325000Y-109135000D01*
G75*
G02*
X144175000Y-108985000I0J150000D01*
G01*
G37*
%TD.AperFunction*%
%TO.P,U3,13*%
%TO.N,GND*%
%TA.AperFunction,SMDPad,CuDef*%
G36*
G01*
X144175000Y-107715000D02*
X144175000Y-107415000D01*
G75*
G02*
X144325000Y-107265000I150000J0D01*
G01*
X145975000Y-107265000D01*
G75*
G02*
X146125000Y-107415000I0J-150000D01*
G01*
X146125000Y-107715000D01*
G75*
G02*
X145975000Y-107865000I-150000J0D01*
G01*
X144325000Y-107865000D01*
G75*
G02*
X144175000Y-107715000I0J150000D01*
G01*
G37*
%TD.AperFunction*%
%TO.P,U3,14*%
%TO.N,Net-(U2-Pad12)*%
%TA.AperFunction,SMDPad,CuDef*%
G36*
G01*
X144175000Y-106445000D02*
X144175000Y-106145000D01*
G75*
G02*
X144325000Y-105995000I150000J0D01*
G01*
X145975000Y-105995000D01*
G75*
G02*
X146125000Y-106145000I0J-150000D01*
G01*
X146125000Y-106445000D01*
G75*
G02*
X145975000Y-106595000I-150000J0D01*
G01*
X144325000Y-106595000D01*
G75*
G02*
X144175000Y-106445000I0J150000D01*
G01*
G37*
%TD.AperFunction*%
%TO.P,U3,15*%
%TO.N,Net-(R7-Pad2)*%
%TA.AperFunction,SMDPad,CuDef*%
G36*
G01*
X144175000Y-105175000D02*
X144175000Y-104875000D01*
G75*
G02*
X144325000Y-104725000I150000J0D01*
G01*
X145975000Y-104725000D01*
G75*
G02*
X146125000Y-104875000I0J-150000D01*
G01*
X146125000Y-105175000D01*
G75*
G02*
X145975000Y-105325000I-150000J0D01*
G01*
X144325000Y-105325000D01*
G75*
G02*
X144175000Y-105175000I0J150000D01*
G01*
G37*
%TD.AperFunction*%
%TO.P,U3,16*%
%TO.N,Net-(R1-Pad2)*%
%TA.AperFunction,SMDPad,CuDef*%
G36*
G01*
X144175000Y-103905000D02*
X144175000Y-103605000D01*
G75*
G02*
X144325000Y-103455000I150000J0D01*
G01*
X145975000Y-103455000D01*
G75*
G02*
X146125000Y-103605000I0J-150000D01*
G01*
X146125000Y-103905000D01*
G75*
G02*
X145975000Y-104055000I-150000J0D01*
G01*
X144325000Y-104055000D01*
G75*
G02*
X144175000Y-103905000I0J150000D01*
G01*
G37*
%TD.AperFunction*%
%TD*%
%TO.P,U4,16*%
%TO.N,Net-(R1-Pad2)*%
%TA.AperFunction,SMDPad,CuDef*%
G36*
G01*
X146725000Y-101820000D02*
X146725000Y-102120000D01*
G75*
G02*
X146575000Y-102270000I-150000J0D01*
G01*
X144925000Y-102270000D01*
G75*
G02*
X144775000Y-102120000I0J150000D01*
G01*
X144775000Y-101820000D01*
G75*
G02*
X144925000Y-101670000I150000J0D01*
G01*
X146575000Y-101670000D01*
G75*
G02*
X146725000Y-101820000I0J-150000D01*
G01*
G37*
%TD.AperFunction*%
%TO.P,U4,15*%
%TO.N,Net-(R6-Pad1)*%
%TA.AperFunction,SMDPad,CuDef*%
G36*
G01*
X146725000Y-100550000D02*
X146725000Y-100850000D01*
G75*
G02*
X146575000Y-101000000I-150000J0D01*
G01*
X144925000Y-101000000D01*
G75*
G02*
X144775000Y-100850000I0J150000D01*
G01*
X144775000Y-100550000D01*
G75*
G02*
X144925000Y-100400000I150000J0D01*
G01*
X146575000Y-100400000D01*
G75*
G02*
X146725000Y-100550000I0J-150000D01*
G01*
G37*
%TD.AperFunction*%
%TO.P,U4,14*%
%TO.N,Net-(U2-Pad13)*%
%TA.AperFunction,SMDPad,CuDef*%
G36*
G01*
X146725000Y-99280000D02*
X146725000Y-99580000D01*
G75*
G02*
X146575000Y-99730000I-150000J0D01*
G01*
X144925000Y-99730000D01*
G75*
G02*
X144775000Y-99580000I0J150000D01*
G01*
X144775000Y-99280000D01*
G75*
G02*
X144925000Y-99130000I150000J0D01*
G01*
X146575000Y-99130000D01*
G75*
G02*
X146725000Y-99280000I0J-150000D01*
G01*
G37*
%TD.AperFunction*%
%TO.P,U4,13*%
%TO.N,GND*%
%TA.AperFunction,SMDPad,CuDef*%
G36*
G01*
X146725000Y-98010000D02*
X146725000Y-98310000D01*
G75*
G02*
X146575000Y-98460000I-150000J0D01*
G01*
X144925000Y-98460000D01*
G75*
G02*
X144775000Y-98310000I0J150000D01*
G01*
X144775000Y-98010000D01*
G75*
G02*
X144925000Y-97860000I150000J0D01*
G01*
X146575000Y-97860000D01*
G75*
G02*
X146725000Y-98010000I0J-150000D01*
G01*
G37*
%TD.AperFunction*%
%TO.P,U4,12*%
%TO.N,Net-(U2-Pad11)*%
%TA.AperFunction,SMDPad,CuDef*%
G36*
G01*
X146725000Y-96740000D02*
X146725000Y-97040000D01*
G75*
G02*
X146575000Y-97190000I-150000J0D01*
G01*
X144925000Y-97190000D01*
G75*
G02*
X144775000Y-97040000I0J150000D01*
G01*
X144775000Y-96740000D01*
G75*
G02*
X144925000Y-96590000I150000J0D01*
G01*
X146575000Y-96590000D01*
G75*
G02*
X146725000Y-96740000I0J-150000D01*
G01*
G37*
%TD.AperFunction*%
%TO.P,U4,11*%
%TO.N,Net-(U2-Pad10)*%
%TA.AperFunction,SMDPad,CuDef*%
G36*
G01*
X146725000Y-95470000D02*
X146725000Y-95770000D01*
G75*
G02*
X146575000Y-95920000I-150000J0D01*
G01*
X144925000Y-95920000D01*
G75*
G02*
X144775000Y-95770000I0J150000D01*
G01*
X144775000Y-95470000D01*
G75*
G02*
X144925000Y-95320000I150000J0D01*
G01*
X146575000Y-95320000D01*
G75*
G02*
X146725000Y-95470000I0J-150000D01*
G01*
G37*
%TD.AperFunction*%
%TO.P,U4,10*%
%TO.N,Net-(R1-Pad2)*%
%TA.AperFunction,SMDPad,CuDef*%
G36*
G01*
X146725000Y-94200000D02*
X146725000Y-94500000D01*
G75*
G02*
X146575000Y-94650000I-150000J0D01*
G01*
X144925000Y-94650000D01*
G75*
G02*
X144775000Y-94500000I0J150000D01*
G01*
X144775000Y-94200000D01*
G75*
G02*
X144925000Y-94050000I150000J0D01*
G01*
X146575000Y-94050000D01*
G75*
G02*
X146725000Y-94200000I0J-150000D01*
G01*
G37*
%TD.AperFunction*%
%TO.P,U4,9*%
%TO.N,Net-(U4-Pad9)*%
%TA.AperFunction,SMDPad,CuDef*%
G36*
G01*
X146725000Y-92930000D02*
X146725000Y-93230000D01*
G75*
G02*
X146575000Y-93380000I-150000J0D01*
G01*
X144925000Y-93380000D01*
G75*
G02*
X144775000Y-93230000I0J150000D01*
G01*
X144775000Y-92930000D01*
G75*
G02*
X144925000Y-92780000I150000J0D01*
G01*
X146575000Y-92780000D01*
G75*
G02*
X146725000Y-92930000I0J-150000D01*
G01*
G37*
%TD.AperFunction*%
%TO.P,U4,8*%
%TO.N,GND*%
%TA.AperFunction,SMDPad,CuDef*%
G36*
G01*
X151675000Y-92930000D02*
X151675000Y-93230000D01*
G75*
G02*
X151525000Y-93380000I-150000J0D01*
G01*
X149875000Y-93380000D01*
G75*
G02*
X149725000Y-93230000I0J150000D01*
G01*
X149725000Y-92930000D01*
G75*
G02*
X149875000Y-92780000I150000J0D01*
G01*
X151525000Y-92780000D01*
G75*
G02*
X151675000Y-92930000I0J-150000D01*
G01*
G37*
%TD.AperFunction*%
%TO.P,U4,7*%
%TO.N,Net-(U4-Pad7)*%
%TA.AperFunction,SMDPad,CuDef*%
G36*
G01*
X151675000Y-94200000D02*
X151675000Y-94500000D01*
G75*
G02*
X151525000Y-94650000I-150000J0D01*
G01*
X149875000Y-94650000D01*
G75*
G02*
X149725000Y-94500000I0J150000D01*
G01*
X149725000Y-94200000D01*
G75*
G02*
X149875000Y-94050000I150000J0D01*
G01*
X151525000Y-94050000D01*
G75*
G02*
X151675000Y-94200000I0J-150000D01*
G01*
G37*
%TD.AperFunction*%
%TO.P,U4,6*%
%TO.N,Net-(R3-Pad2)*%
%TA.AperFunction,SMDPad,CuDef*%
G36*
G01*
X151675000Y-95470000D02*
X151675000Y-95770000D01*
G75*
G02*
X151525000Y-95920000I-150000J0D01*
G01*
X149875000Y-95920000D01*
G75*
G02*
X149725000Y-95770000I0J150000D01*
G01*
X149725000Y-95470000D01*
G75*
G02*
X149875000Y-95320000I150000J0D01*
G01*
X151525000Y-95320000D01*
G75*
G02*
X151675000Y-95470000I0J-150000D01*
G01*
G37*
%TD.AperFunction*%
%TO.P,U4,5*%
%TO.N,Net-(U4-Pad5)*%
%TA.AperFunction,SMDPad,CuDef*%
G36*
G01*
X151675000Y-96740000D02*
X151675000Y-97040000D01*
G75*
G02*
X151525000Y-97190000I-150000J0D01*
G01*
X149875000Y-97190000D01*
G75*
G02*
X149725000Y-97040000I0J150000D01*
G01*
X149725000Y-96740000D01*
G75*
G02*
X149875000Y-96590000I150000J0D01*
G01*
X151525000Y-96590000D01*
G75*
G02*
X151675000Y-96740000I0J-150000D01*
G01*
G37*
%TD.AperFunction*%
%TO.P,U4,4*%
%TO.N,Net-(R4-Pad2)*%
%TA.AperFunction,SMDPad,CuDef*%
G36*
G01*
X151675000Y-98010000D02*
X151675000Y-98310000D01*
G75*
G02*
X151525000Y-98460000I-150000J0D01*
G01*
X149875000Y-98460000D01*
G75*
G02*
X149725000Y-98310000I0J150000D01*
G01*
X149725000Y-98010000D01*
G75*
G02*
X149875000Y-97860000I150000J0D01*
G01*
X151525000Y-97860000D01*
G75*
G02*
X151675000Y-98010000I0J-150000D01*
G01*
G37*
%TD.AperFunction*%
%TO.P,U4,3*%
%TO.N,Net-(U4-Pad3)*%
%TA.AperFunction,SMDPad,CuDef*%
G36*
G01*
X151675000Y-99280000D02*
X151675000Y-99580000D01*
G75*
G02*
X151525000Y-99730000I-150000J0D01*
G01*
X149875000Y-99730000D01*
G75*
G02*
X149725000Y-99580000I0J150000D01*
G01*
X149725000Y-99280000D01*
G75*
G02*
X149875000Y-99130000I150000J0D01*
G01*
X151525000Y-99130000D01*
G75*
G02*
X151675000Y-99280000I0J-150000D01*
G01*
G37*
%TD.AperFunction*%
%TO.P,U4,2*%
%TO.N,Net-(R5-Pad1)*%
%TA.AperFunction,SMDPad,CuDef*%
G36*
G01*
X151675000Y-100550000D02*
X151675000Y-100850000D01*
G75*
G02*
X151525000Y-101000000I-150000J0D01*
G01*
X149875000Y-101000000D01*
G75*
G02*
X149725000Y-100850000I0J150000D01*
G01*
X149725000Y-100550000D01*
G75*
G02*
X149875000Y-100400000I150000J0D01*
G01*
X151525000Y-100400000D01*
G75*
G02*
X151675000Y-100550000I0J-150000D01*
G01*
G37*
%TD.AperFunction*%
%TO.P,U4,1*%
%TO.N,Net-(U4-Pad1)*%
%TA.AperFunction,SMDPad,CuDef*%
G36*
G01*
X151675000Y-101820000D02*
X151675000Y-102120000D01*
G75*
G02*
X151525000Y-102270000I-150000J0D01*
G01*
X149875000Y-102270000D01*
G75*
G02*
X149725000Y-102120000I0J150000D01*
G01*
X149725000Y-101820000D01*
G75*
G02*
X149875000Y-101670000I150000J0D01*
G01*
X151525000Y-101670000D01*
G75*
G02*
X151675000Y-101820000I0J-150000D01*
G01*
G37*
%TD.AperFunction*%
%TD*%
D14*
%TO.P,Y1,1*%
%TO.N,Net-(C1-Pad1)*%
X132450000Y-119700000D03*
%TO.P,Y1,2*%
%TO.N,Net-(C2-Pad1)*%
X132450000Y-114820000D03*
%TD*%
D15*
%TO.N,VCC*%
X135950000Y-97800000D03*
%TO.N,GND*%
X148150000Y-93100000D03*
X132350000Y-102400000D03*
X148350000Y-98600000D03*
X142950000Y-107300000D03*
%TO.N,Net-(U2-Pad4)*%
X130650000Y-106200000D03*
%TO.N,Net-(U2-Pad7)*%
X131150000Y-111300000D03*
%TO.N,Net-(U2-Pad8)*%
X131250000Y-107400000D03*
%TO.N,Net-(U2-Pad9)*%
X131950000Y-106200000D03*
%TD*%
D16*
%TO.N,Net-(R1-Pad2)*%
X130250000Y-102600000D02*
X130040000Y-102390000D01*
X131935010Y-104285010D02*
X130250000Y-102600000D01*
X130000000Y-101850000D02*
X130250000Y-101600000D01*
X130250000Y-101600000D02*
X131650000Y-100200000D01*
X130250000Y-102600000D02*
X130250000Y-101600000D01*
X129460000Y-102390000D02*
X130000000Y-101850000D01*
X130040000Y-102390000D02*
X130040000Y-101890000D01*
X130040000Y-101890000D02*
X130000000Y-101850000D01*
X151050010Y-113499990D02*
X150650000Y-113900000D01*
X150650000Y-113900000D02*
X150500000Y-114050000D01*
X149574997Y-113874999D02*
X150624999Y-113874999D01*
X150624999Y-113874999D02*
X150650000Y-113900000D01*
X149724999Y-114025001D02*
X149574997Y-113874999D01*
X149874999Y-114175001D02*
X149724999Y-114025001D01*
X150500000Y-114050000D02*
X150450000Y-114100000D01*
X149724999Y-114025001D02*
X150475001Y-114025001D01*
X150475001Y-114025001D02*
X150500000Y-114050000D01*
X150374999Y-114175001D02*
X150450000Y-114100000D01*
X150124999Y-114425001D02*
X149874999Y-114175001D01*
X149874999Y-114175001D02*
X150374999Y-114175001D01*
X150450000Y-114100000D02*
X150124999Y-114425001D01*
X149574997Y-113874999D02*
X147586001Y-113874999D01*
X147586001Y-113874999D02*
X146450000Y-112738998D01*
X150124999Y-114425001D02*
X150124999Y-116413997D01*
X150124999Y-116413997D02*
X150961002Y-117250000D01*
X150961002Y-117250000D02*
X154200000Y-117250000D01*
X152313769Y-93112999D02*
X153471761Y-93112999D01*
X153471761Y-93112999D02*
X154937021Y-94578259D01*
X154937020Y-111958152D02*
X153395182Y-113499990D01*
X145750000Y-94350000D02*
X145825001Y-94425001D01*
X153395182Y-113499990D02*
X151050010Y-113499990D01*
X145825001Y-94425001D02*
X148958251Y-94425001D01*
X148958251Y-94425001D02*
X149678242Y-93705010D01*
X149678242Y-93705010D02*
X151721758Y-93705010D01*
X151721758Y-93705010D02*
X152313769Y-93112999D01*
X154937021Y-94578259D02*
X154937020Y-111958152D01*
X145150000Y-103755000D02*
X144507999Y-103112999D01*
X144507999Y-103112999D02*
X137428239Y-103112999D01*
X137428239Y-103112999D02*
X136256228Y-104285010D01*
X136256228Y-104285010D02*
X131935010Y-104285010D01*
X130040000Y-102390000D02*
X129000000Y-102390000D01*
X145750000Y-94350000D02*
X144100000Y-94350000D01*
X144100000Y-94350000D02*
X143650010Y-93900010D01*
X143650010Y-93336820D02*
X143313180Y-92999990D01*
X143650010Y-93900010D02*
X143650010Y-93336820D01*
X143313180Y-92999990D02*
X142086820Y-92999990D01*
X140513180Y-95499990D02*
X136350010Y-95499990D01*
X142086820Y-92999990D02*
X140850010Y-94236800D01*
X140850010Y-94236800D02*
X140850010Y-95163160D01*
X140850010Y-95163160D02*
X140513180Y-95499990D01*
X136350010Y-95499990D02*
X131650000Y-100200000D01*
X146450000Y-111700000D02*
X146450000Y-112738998D01*
X145150000Y-111375000D02*
X146125000Y-111375000D01*
X146125000Y-111375000D02*
X146450000Y-111700000D01*
X129000000Y-102390000D02*
X129460000Y-102390000D01*
X154200000Y-119200000D02*
X154200000Y-117250000D01*
X145750000Y-101970000D02*
X145750000Y-103155000D01*
X145750000Y-103155000D02*
X145150000Y-103755000D01*
X128274999Y-97275001D02*
X131650000Y-93900000D01*
X128274999Y-101664999D02*
X128274999Y-97275001D01*
X129000000Y-102390000D02*
X128274999Y-101664999D01*
%TO.N,VCC*%
X133950000Y-100200000D02*
X133950000Y-99800000D01*
X133950000Y-99800000D02*
X135950000Y-97800000D01*
%TO.N,GND*%
X148150000Y-93100000D02*
X147544990Y-93705010D01*
X147544990Y-93705010D02*
X144655010Y-93705010D01*
X150700000Y-93080000D02*
X148170000Y-93080000D01*
X148170000Y-93080000D02*
X148150000Y-93100000D01*
X132350000Y-102400000D02*
X133940000Y-102400000D01*
X133940000Y-102400000D02*
X133950000Y-102390000D01*
X145750000Y-98160000D02*
X147910000Y-98160000D01*
X147910000Y-98160000D02*
X148350000Y-98600000D01*
X145150000Y-107565000D02*
X143215000Y-107565000D01*
X143215000Y-107565000D02*
X142950000Y-107300000D01*
X139050000Y-119200000D02*
X141550000Y-121700000D01*
X141550000Y-121700000D02*
X143700000Y-121700000D01*
X136450000Y-119200000D02*
X139050000Y-119200000D01*
X144655010Y-93705010D02*
X143499981Y-92549981D01*
X137000019Y-92549981D02*
X129350000Y-100200000D01*
X143499981Y-92549981D02*
X137000019Y-92549981D01*
X143700000Y-121700000D02*
X145114213Y-121700000D01*
X145114213Y-121700000D02*
X146950000Y-121700000D01*
X143700000Y-115200000D02*
X146950000Y-115200000D01*
X143700000Y-115200000D02*
X141145000Y-112645000D01*
X141145000Y-112645000D02*
X140200000Y-112645000D01*
X136450000Y-120875000D02*
X136450000Y-119200000D01*
%TO.N,Net-(C1-Pad1)*%
X132450000Y-119700000D02*
X133700000Y-119700000D01*
X133700000Y-119700000D02*
X136450000Y-122450000D01*
X131374999Y-118624999D02*
X132450000Y-119700000D01*
X128382940Y-112450010D02*
X129563600Y-112450010D01*
X131374999Y-114261409D02*
X131374999Y-118624999D01*
X127249981Y-111317051D02*
X128382940Y-112450010D01*
X127249980Y-105033252D02*
X127249981Y-111317051D01*
X129563600Y-112450010D02*
X131374999Y-114261409D01*
X128623232Y-103660000D02*
X127249980Y-105033252D01*
X129000000Y-103660000D02*
X128623232Y-103660000D01*
%TO.N,Net-(C2-Pad1)*%
X132450000Y-114820000D02*
X133645000Y-114820000D01*
X133645000Y-114820000D02*
X136450000Y-117625000D01*
X132450000Y-114700000D02*
X132450000Y-114820000D01*
X128569340Y-112000000D02*
X129750000Y-112000000D01*
X127699990Y-105853242D02*
X127699990Y-111130650D01*
X128623232Y-104930000D02*
X127699990Y-105853242D01*
X129750000Y-112000000D02*
X132450000Y-114700000D01*
X127699990Y-111130650D02*
X128569340Y-112000000D01*
X129000000Y-104930000D02*
X128623232Y-104930000D01*
%TO.N,Net-(U2-Pad4)*%
X129000000Y-106200000D02*
X130650000Y-106200000D01*
%TO.N,Net-(R2-Pad1)*%
X130396822Y-108740000D02*
X142031821Y-120374999D01*
X129000000Y-108740000D02*
X130396822Y-108740000D01*
X142031821Y-120374999D02*
X150124999Y-120374999D01*
X150124999Y-120374999D02*
X151450000Y-121700000D01*
X151450000Y-115200000D02*
X153450000Y-115200000D01*
X153450000Y-115200000D02*
X154200000Y-114450000D01*
%TO.N,Net-(R1-Pad1)*%
X129763232Y-107470000D02*
X137193232Y-114900000D01*
X137193232Y-114900000D02*
X138900000Y-114900000D01*
X129000000Y-107470000D02*
X129763232Y-107470000D01*
X138900000Y-114900000D02*
X139200000Y-115200000D01*
X154200000Y-122000000D02*
X153174999Y-123025001D01*
X153174999Y-123025001D02*
X140525001Y-123025001D01*
X140525001Y-123025001D02*
X139200000Y-121700000D01*
%TO.N,Net-(U2-Pad7)*%
X129000000Y-110010000D02*
X129000000Y-110350000D01*
X129000000Y-110350000D02*
X129750000Y-111100000D01*
X130950000Y-111100000D02*
X131150000Y-111300000D01*
X129750000Y-111100000D02*
X130950000Y-111100000D01*
%TO.N,Net-(U2-Pad8)*%
X131250000Y-107400000D02*
X131250000Y-107965685D01*
X131250000Y-107965685D02*
X133294315Y-110010000D01*
X133294315Y-110010000D02*
X133950000Y-110010000D01*
%TO.N,Net-(U2-Pad9)*%
X131950000Y-106200000D02*
X132349999Y-106599999D01*
X132349999Y-106599999D02*
X132349999Y-108114999D01*
X132349999Y-108114999D02*
X132975000Y-108740000D01*
X132975000Y-108740000D02*
X133950000Y-108740000D01*
%TO.N,Net-(U2-Pad10)*%
X145150000Y-110105000D02*
X145526768Y-110105000D01*
X145526768Y-110105000D02*
X147249990Y-111828222D01*
X147249990Y-111828222D02*
X147249990Y-112563180D01*
X147249990Y-112563180D02*
X147586820Y-112900010D01*
X147586820Y-112900010D02*
X153358752Y-112900010D01*
X153358752Y-112900010D02*
X154487011Y-111771751D01*
X154487011Y-111771751D02*
X154487011Y-96628249D01*
X154487011Y-96628249D02*
X153458762Y-95600000D01*
X153458762Y-95600000D02*
X152366768Y-95600000D01*
X152366768Y-95600000D02*
X151721758Y-96245010D01*
X151721758Y-96245010D02*
X146375010Y-96245010D01*
X146375010Y-96245010D02*
X145750000Y-95620000D01*
X145150000Y-110105000D02*
X144524990Y-110730010D01*
X139178242Y-110730010D02*
X138735233Y-110287001D01*
X137143769Y-110287001D02*
X134326768Y-107470000D01*
X144524990Y-110730010D02*
X139178242Y-110730010D01*
X138735233Y-110287001D02*
X137143769Y-110287001D01*
X134326768Y-107470000D02*
X133950000Y-107470000D01*
%TO.N,Net-(U2-Pad11)*%
X147249990Y-109599990D02*
X146485000Y-108835000D01*
X146485000Y-108835000D02*
X145150000Y-108835000D01*
X147249990Y-110113580D02*
X147249990Y-109599990D01*
X147636410Y-110500000D02*
X147249990Y-110113580D01*
X145750000Y-96890000D02*
X149053232Y-96890000D01*
X148713190Y-110500000D02*
X147636410Y-110500000D01*
X149053232Y-96890000D02*
X149698222Y-97534990D01*
X149698222Y-97534990D02*
X152176228Y-97534990D01*
X152176228Y-97534990D02*
X152428239Y-97787001D01*
X152428239Y-97787001D02*
X153145763Y-97787001D01*
X153145763Y-97787001D02*
X154037001Y-98678239D01*
X145971410Y-108835000D02*
X145150000Y-108835000D01*
X154037001Y-98678239D02*
X154037001Y-107221761D01*
X154037001Y-107221761D02*
X153258772Y-107999990D01*
X153258772Y-107999990D02*
X150386820Y-107999990D01*
X150386820Y-107999990D02*
X149150010Y-109236800D01*
X149150010Y-109236800D02*
X149150010Y-110063180D01*
X149150010Y-110063180D02*
X148713190Y-110500000D01*
X145150000Y-108835000D02*
X141846768Y-108835000D01*
X141846768Y-108835000D02*
X141201778Y-108190010D01*
X141201778Y-108190010D02*
X139178242Y-108190010D01*
X136512001Y-107787001D02*
X134925000Y-106200000D01*
X139178242Y-108190010D02*
X138775233Y-107787001D01*
X138775233Y-107787001D02*
X136512001Y-107787001D01*
X134925000Y-106200000D02*
X133950000Y-106200000D01*
%TO.N,Net-(U2-Pad12)*%
X133950000Y-104930000D02*
X137071238Y-104930000D01*
X137071238Y-104930000D02*
X137754237Y-105612999D01*
X139198222Y-105669990D02*
X141683580Y-105669990D01*
X142308590Y-106295000D02*
X145150000Y-106295000D01*
X137754237Y-105612999D02*
X139141231Y-105612999D01*
X139141231Y-105612999D02*
X139198222Y-105669990D01*
X141683580Y-105669990D02*
X142308590Y-106295000D01*
%TO.N,Net-(U2-Pad13)*%
X135550000Y-102491238D02*
X135550000Y-99991238D01*
X135550000Y-99991238D02*
X137541248Y-97999990D01*
X144775000Y-99430000D02*
X145750000Y-99430000D01*
X137541248Y-97999990D02*
X143344990Y-97999990D01*
X143344990Y-97999990D02*
X144775000Y-99430000D01*
X133950000Y-103660000D02*
X134381238Y-103660000D01*
X134381238Y-103660000D02*
X135550000Y-102491238D01*
%TO.N,Net-(R3-Pad1)*%
X137950000Y-94200000D02*
X139900000Y-94200000D01*
%TO.N,Net-(R3-Pad2)*%
X149370000Y-95620000D02*
X148725010Y-94975010D01*
X143475010Y-94975010D02*
X142700000Y-94200000D01*
X148725010Y-94975010D02*
X143475010Y-94975010D01*
X150700000Y-95620000D02*
X149370000Y-95620000D01*
%TO.N,Net-(R4-Pad2)*%
X148584990Y-97534990D02*
X149210000Y-98160000D01*
X149210000Y-98160000D02*
X150700000Y-98160000D01*
X142700000Y-96700000D02*
X143534990Y-97534990D01*
X143534990Y-97534990D02*
X148584990Y-97534990D01*
%TO.N,Net-(R4-Pad1)*%
X137950000Y-96700000D02*
X139900000Y-96700000D01*
%TO.N,Net-(R5-Pad1)*%
X148424990Y-100074990D02*
X149050000Y-100700000D01*
X149050000Y-100700000D02*
X150700000Y-100700000D01*
X142700000Y-99200000D02*
X143574990Y-100074990D01*
X143574990Y-100074990D02*
X148424990Y-100074990D01*
%TO.N,Net-(R5-Pad2)*%
X137950000Y-99200000D02*
X139900000Y-99200000D01*
%TO.N,Net-(R6-Pad1)*%
X142700000Y-101700000D02*
X143700000Y-100700000D01*
X143700000Y-100700000D02*
X145750000Y-100700000D01*
%TO.N,Net-(R6-Pad2)*%
X137950000Y-101700000D02*
X139900000Y-101700000D01*
%TO.N,Net-(R7-Pad2)*%
X145150000Y-105025000D02*
X147375000Y-105025000D01*
X147375000Y-105025000D02*
X148200000Y-104200000D01*
%TO.N,Net-(R7-Pad1)*%
X151000000Y-104200000D02*
X152950000Y-104200000D01*
%TO.N,Net-(R8-Pad1)*%
X151000000Y-106700000D02*
X152950000Y-106700000D01*
%TO.N,Net-(R8-Pad2)*%
X141675000Y-105025000D02*
X142319990Y-105669990D01*
X142319990Y-105669990D02*
X147169990Y-105669990D01*
X147169990Y-105669990D02*
X148200000Y-106700000D01*
X140200000Y-105025000D02*
X141675000Y-105025000D01*
%TO.N,Net-(R9-Pad2)*%
X141515000Y-107565000D02*
X142159990Y-108209990D01*
X142159990Y-108209990D02*
X147209990Y-108209990D01*
X147209990Y-108209990D02*
X148200000Y-109200000D01*
X140200000Y-107565000D02*
X141515000Y-107565000D01*
%TO.N,Net-(R9-Pad1)*%
X151000000Y-109200000D02*
X152950000Y-109200000D01*
%TO.N,Net-(R10-Pad1)*%
X151000000Y-111700000D02*
X152950000Y-111700000D01*
%TO.N,Net-(R10-Pad2)*%
X140200000Y-110105000D02*
X140825010Y-109479990D01*
X140825010Y-109479990D02*
X146493580Y-109479990D01*
X146493580Y-109479990D02*
X146799980Y-109786390D01*
X146799980Y-109786390D02*
X146799980Y-110299980D01*
X146799980Y-110299980D02*
X148200000Y-111700000D01*
%TO.N,Net-(U3-Pad7)*%
X140200000Y-111375000D02*
X138275000Y-111375000D01*
X138275000Y-111375000D02*
X137950000Y-111700000D01*
%TO.N,Net-(U4-Pad7)*%
X150700000Y-94350000D02*
X152800000Y-94350000D01*
X152800000Y-94350000D02*
X152950000Y-94200000D01*
%TO.N,Net-(U3-Pad1)*%
X140200000Y-103755000D02*
X138395000Y-103755000D01*
X138395000Y-103755000D02*
X137950000Y-104200000D01*
%TO.N,Net-(U3-Pad3)*%
X140200000Y-106295000D02*
X138355000Y-106295000D01*
X138355000Y-106295000D02*
X137950000Y-106700000D01*
%TO.N,Net-(U3-Pad5)*%
X140200000Y-108835000D02*
X138315000Y-108835000D01*
X138315000Y-108835000D02*
X137950000Y-109200000D01*
%TO.N,Net-(U4-Pad5)*%
X150700000Y-96890000D02*
X152760000Y-96890000D01*
X152760000Y-96890000D02*
X152950000Y-96700000D01*
%TO.N,Net-(U4-Pad3)*%
X150700000Y-99430000D02*
X152720000Y-99430000D01*
X152720000Y-99430000D02*
X152950000Y-99200000D01*
%TO.N,Net-(U4-Pad1)*%
X150700000Y-101970000D02*
X152680000Y-101970000D01*
X152680000Y-101970000D02*
X152950000Y-101700000D01*
%TD*%
M02*
